<svg width="321" height="97" viewBox="0 0 321 97" fill="none" xmlns="http://www.w3.org/2000/svg">
<path d="M38.6167 40.24C42.4567 41.14 45.4867 43 47.7067 45.82C49.9867 48.64 51.1267 51.91 51.1267 55.63C51.1267 61.09 49.2967 65.35 45.6367 68.41C42.0367 71.47 36.8467 73 30.0667 73H0.456665V9.37003H29.3467C35.8267 9.37003 40.8367 10.78 44.3767 13.6C47.9167 16.42 49.6867 20.44 49.6867 25.66C49.6867 29.5 48.6667 32.71 46.6267 35.29C44.5867 37.81 41.9167 39.46 38.6167 40.24ZM15.8467 35.38H25.9267C31.2667 35.38 33.9367 33.1 33.9367 28.54C33.9367 23.98 31.2067 21.7 25.7467 21.7H15.8467V35.38ZM26.8267 60.49C32.5267 60.49 35.3767 58.15 35.3767 53.47C35.3767 51.19 34.6267 49.42 33.1267 48.16C31.6267 46.84 29.4967 46.18 26.7367 46.18H15.8467V60.49H26.8267Z" fill="#6C63FF"/>
<path d="M83.6455 22.15C88.6255 22.15 93.0655 23.2 96.9655 25.3C100.926 27.34 104.016 30.31 106.236 34.21C108.516 38.11 109.656 42.67 109.656 47.89C109.656 53.11 108.516 57.67 106.236 61.57C104.016 65.47 100.926 68.47 96.9655 70.57C93.0655 72.61 88.6255 73.63 83.6455 73.63C78.6655 73.63 74.1955 72.61 70.2355 70.57C66.2755 68.47 63.1555 65.47 60.8755 61.57C58.6555 57.67 57.5455 53.11 57.5455 47.89C57.5455 42.67 58.6555 38.11 60.8755 34.21C63.1555 30.31 66.2755 27.34 70.2355 25.3C74.1955 23.2 78.6655 22.15 83.6455 22.15ZM83.6455 35.47C80.7055 35.47 78.2155 36.55 76.1755 38.71C74.1955 40.81 73.2055 43.87 73.2055 47.89C73.2055 51.91 74.1955 54.97 76.1755 57.07C78.2155 59.17 80.7055 60.22 83.6455 60.22C86.5855 60.22 89.0455 59.17 91.0255 57.07C93.0055 54.97 93.9955 51.91 93.9955 47.89C93.9955 43.87 93.0055 40.81 91.0255 38.71C89.0455 36.55 86.5855 35.47 83.6455 35.47Z" fill="#6C63FF"/>
<path d="M133.926 6.40002V73H118.536V6.40002H133.926Z" fill="#6C63FF"/>
<path d="M205.732 8.65003C205.732 6.31003 206.572 4.39002 208.252 2.89001C209.932 1.33001 212.152 0.550018 214.912 0.550018C217.672 0.550018 219.892 1.33001 221.572 2.89001C223.252 4.39002 224.092 6.31003 224.092 8.65003C224.092 10.93 223.252 12.85 221.572 14.41C219.892 15.91 217.672 16.66 214.912 16.66C212.152 16.66 209.932 15.91 208.252 14.41C206.572 12.85 205.732 10.93 205.732 8.65003ZM222.562 22.78V73H207.172V22.78H222.562Z" fill="#6C63FF"/>
<path d="M258.747 15.94C256.227 15.94 254.398 16.48 253.258 17.56C252.118 18.64 251.488 20.38 251.368 22.78H260.458V35.74H251.368V73H235.978V35.74H229.948V22.78H235.978V22.24C235.978 16 237.778 11.2 241.378 7.84002C245.038 4.42002 250.317 2.71002 257.217 2.71002C258.657 2.71002 259.738 2.74002 260.458 2.80002V16.03L258.747 15.94Z" fill="#6C63FF"/>
<path d="M279.732 22.78L291.792 53.56L303.042 22.78H320.052L288.732 96.94H271.812L283.602 71.11L262.542 22.78H279.732Z" fill="#6C63FF"/>
<path d="M171.012 22C176.772 22 187.632 24.16 190.992 28C194.412 31.84 196.122 37.12 196.122 43.84V73H180.732V45.64C180.732 42.28 179.832 39.67 178.032 37.81C176.292 35.89 173.952 34.93 171.012 34.93C168.072 34.93 165.732 35.89 163.992 37.81C162.192 39.67 161.292 42.28 161.292 45.64V73H145.902V43.84C145.902 37.12 147.612 31.84 151.032 28C154.392 24.16 165.252 22 171.012 22Z" fill="#6C63FF"/>
<path d="M161.292 22C161.292 19.66 162.132 17.74 163.812 16.24C165.492 14.68 167.712 13.9 170.472 13.9C173.232 13.9 175.452 14.68 177.132 16.24C178.812 17.74 179.652 19.66 179.652 22C179.652 24.28 178.812 26.2 177.132 27.76C175.452 29.26 173.232 30.01 170.472 30.01C167.712 30.01 165.492 29.26 163.812 27.76C162.132 26.2 161.292 24.28 161.292 22Z" fill="#6C63FF"/>
<path d="M180.192 78C180.192 80.28 179.352 82.2 177.672 83.76C175.992 85.26 173.772 86.01 171.012 86.01C168.252 86.01 166.032 85.26 164.352 83.76C162.672 82.2 161.832 80.28 161.832 78H180.192Z" fill="#6C63FF"/>
</svg>
