<svg width="250" height="173" viewBox="0 0 250 173" fill="none" xmlns="http://www.w3.org/2000/svg">
<g clip-path="url(#clip0)">
<path opacity="0.1" d="M141.407 23.553C125.383 23.5745 109.958 19.0211 95.2048 13.9628C80.4514 8.90443 65.8116 3.24012 50.0849 0.839878C39.9706 -0.70298 28.4693 -0.561158 20.5631 5.04084C12.9527 10.4301 10.7489 19.3499 9.68556 27.5906C8.88594 33.79 8.51721 40.2967 11.5121 45.9674C13.5915 49.9041 17.1502 53.1488 19.6584 56.9007C28.4135 69.9526 23.1484 86.6254 14.6398 99.9804C10.6503 106.246 5.97684 112.252 2.96056 118.877C-0.055727 125.502 -1.29268 133.014 1.78363 139.553C4.83207 146.034 11.7179 150.738 19.1074 153.95C34.1138 160.487 51.5855 161.888 68.5878 162.427C106.224 163.624 143.933 161.183 181.541 158.742C195.458 157.84 209.438 156.931 223.068 154.316C230.635 152.865 238.428 150.712 243.794 145.993C250.605 140.002 251.998 130.221 247.042 123.19C238.73 111.397 216.814 109.173 210.855 96.4133C207.568 89.3888 210.402 81.3328 214.576 74.5619C223.529 60.0336 238.938 47.0203 239.198 30.7709C239.376 19.612 231.362 8.72608 219.393 3.87617C206.848 -1.20366 189.743 0.10283 180.954 9.57057C171.915 19.3241 155.556 23.538 141.407 23.553Z" fill="#6C63FF"/>
<path d="M212.776 138.677C212.776 138.677 210.141 136.934 207.53 138.174C207.53 138.174 208.334 139.725 211.639 139.579L212.776 138.677Z" fill="#6C63FF"/>
<path d="M213.11 138.769C213.11 138.769 213.912 141.829 211.901 143.911C211.901 143.911 210.692 142.65 211.901 139.56L213.11 138.769Z" fill="#6C63FF"/>
<path d="M216.386 135.832C216.386 135.832 216.191 133.229 210.327 134.093C210.327 134.093 210.3 135.772 212.358 136.567C214.416 137.362 215.359 136.691 216.386 135.832Z" fill="#6C63FF"/>
<path d="M216.754 135.815C216.754 135.815 219.233 136.612 217.022 142.123C217.022 142.123 215.387 141.758 215.093 139.564C214.799 137.37 215.67 136.614 216.754 135.815Z" fill="#6C63FF"/>
<path d="M220.064 132.123C220.064 132.123 220.401 127.84 214.409 128.279C214.409 128.279 213.98 132.146 219.007 133.152L220.064 132.123Z" fill="#6C63FF"/>
<path d="M224.024 127.288C224.024 127.288 223.203 122.434 217.213 123.88C217.213 123.88 217.192 128.077 223.046 128.444L224.024 127.288Z" fill="#6C63FF"/>
<path d="M226.918 122.29C226.918 122.29 225.542 117.562 219.608 118.976C219.608 118.976 221.02 123.229 226.524 123.162L226.918 122.29Z" fill="#6C63FF"/>
<path d="M229.666 117.408C229.666 117.408 228.322 112.502 222.592 113.97C222.592 113.97 224.504 118.63 229.287 118.237L229.666 117.408Z" fill="#6C63FF"/>
<path d="M231.437 112.77C231.437 112.77 230.404 106.771 225.062 108.099C225.062 108.099 226.614 113.557 231.045 113.645L231.437 112.77Z" fill="#6C63FF"/>
<path d="M233.099 107.169C233.099 107.169 231.857 101.122 226.453 102.871C226.453 102.871 228.571 108.587 232.715 107.996L233.099 107.169Z" fill="#6C63FF"/>
<path d="M234.119 101.955C234.119 101.955 232.149 95.9065 227.971 96.0698C227.971 96.0698 229.984 102.458 233.77 103.161L234.119 101.955Z" fill="#6C63FF"/>
<path d="M234.779 96.867C234.779 96.867 232.635 89.5868 229.235 90.1476C229.235 90.1476 230.719 95.7131 234.659 98.0016L234.779 96.867Z" fill="#6C63FF"/>
<path d="M235.152 90.7966C235.152 90.7966 233.141 84.7305 229.793 84.4876C229.793 84.4876 231.161 90.4571 235.086 92.3738L235.152 90.7966Z" fill="#6C63FF"/>
<path d="M235.557 85.1323C235.557 85.1323 233.051 79.0597 230.841 78.9221C230.841 78.9221 231.93 84.9023 235.343 86.1293L235.557 85.1323Z" fill="#6C63FF"/>
<path d="M235.834 79.8634C235.834 79.8634 234.293 73.2686 232.078 72.7206C232.078 72.7206 232.38 78.1164 235.611 80.3576L235.834 79.8634Z" fill="#6C63FF"/>
<path d="M236.67 72.9613C236.67 72.9613 235.049 67.7031 233.255 66.9016C233.255 66.9016 233.609 73.101 236.256 74.2463L236.67 72.9613Z" fill="#6C63FF"/>
<path d="M237.362 68.4488L237.688 59.1787C237.688 59.1787 234.333 66.1667 237.12 70.0754L237.362 68.4488Z" fill="#6C63FF"/>
<path d="M239.952 59.2281C239.952 59.2281 242.368 52.4593 242.953 52.0811C242.953 52.0811 238.216 56.4733 238.679 62.1226L239.952 59.2281Z" fill="#6C63FF"/>
<path d="M220.227 132.091C220.227 132.091 224.476 131.534 224.35 137.553C224.35 137.553 220.51 138.18 219.256 133.202L220.227 132.091Z" fill="#6C63FF"/>
<path d="M224.225 127.125C224.225 127.125 229.135 127.11 228.727 133.27C228.727 133.27 224.605 134.01 223.246 128.289L224.225 127.125Z" fill="#6C63FF"/>
<path d="M226.965 122.687C226.965 122.687 231.422 120.592 234.273 126.001C234.273 126.001 230.157 127.746 226.571 123.562L226.965 122.687Z" fill="#6C63FF"/>
<path d="M229.765 117.453C229.765 117.453 234.329 115.224 237.009 120.506C237.009 120.506 232.254 122.148 229.388 118.289L229.765 117.453Z" fill="#6C63FF"/>
<path d="M231.379 112.902C231.379 112.902 235.772 108.696 239.277 112.949C239.277 112.949 234.79 116.411 231.178 113.838L231.379 112.902Z" fill="#6C63FF"/>
<path d="M232.85 107.025C232.85 107.025 237.268 102.727 240.745 107.222C240.745 107.222 235.787 110.753 232.691 107.927L232.85 107.025Z" fill="#6C63FF"/>
<path d="M233.675 101.784C233.675 101.784 237.079 96.4115 241.088 97.6105C241.088 97.6105 237.555 103.298 233.714 103.045L233.675 101.784Z" fill="#6C63FF"/>
<path d="M234.678 96.8327C234.678 96.8327 238.108 90.0681 241.354 91.2457C241.354 91.2457 238.88 96.4459 234.591 97.9737L234.678 96.8327Z" fill="#6C63FF"/>
<path d="M234.916 90.4442C234.916 90.4442 238.443 85.1194 241.746 85.7705C241.746 85.7705 238.863 91.1705 234.573 91.9849L234.916 90.4442Z" fill="#6C63FF"/>
<path d="M235.191 85.0141C235.191 85.0141 237.924 79.0382 240.145 78.9974C240.145 78.9974 238.833 84.9303 235.375 86.0283L235.191 85.0141Z" fill="#6C63FF"/>
<path d="M235.727 79.7344C235.727 79.7344 238.764 73.6833 241.048 73.6704C241.048 73.6704 239.493 78.8448 235.828 80.2652L235.727 79.7344Z" fill="#6C63FF"/>
<path d="M236.183 73.3395C236.183 73.3395 238.456 68.3327 240.338 67.7655C240.338 67.7655 239.202 73.8681 236.434 74.6675L236.183 73.3395Z" fill="#6C63FF"/>
<path d="M237.633 68.2661L242.711 60.511C242.711 60.511 241.41 68.1608 236.891 69.751L237.633 68.2661Z" fill="#6C63FF"/>
<path d="M241.118 59.8535C241.118 59.8535 247.02 55.7707 247.235 55.111C247.235 55.111 244.233 60.829 238.659 61.839L241.118 59.8535Z" fill="#6C63FF"/>
<path d="M241.472 58.0162C241.472 58.0162 248.249 51.4859 249.979 51.4924C249.979 51.4924 244.39 51.7481 241.309 57.6681L241.472 58.0162Z" fill="#6C63FF"/>
<path d="M236.25 74.3086L236.496 74.3409C237.77 64.351 239.626 58.4395 241.723 57.7154L241.641 57.479C239.418 58.2526 237.549 64.0738 236.25 74.3086Z" fill="#444053"/>
<path d="M234.376 98.1993L234.749 98.2294C234.829 97.2968 234.889 96.3427 234.929 95.3908C235.285 87.1221 235.836 79.5281 236.561 73.8359L236.346 73.5673C235.62 79.2724 234.912 87.0941 234.556 95.3757C234.516 96.3212 234.455 97.271 234.376 98.1993Z" fill="#444053"/>
<path d="M205.821 143.443C205.886 143.415 212.452 140.475 219.267 133.466C223.26 129.36 226.577 124.646 229.096 119.498C232.247 113.067 234.168 105.164 234.811 97.4859L234.423 97.6686C232.976 114.902 225.149 126.678 218.926 133.092C212.177 140.039 205.684 142.949 205.62 142.977L205.821 143.443Z" fill="#444053"/>
<path d="M222.823 18.3145H16.8329C16.3462 18.3145 15.8794 18.5083 15.5353 18.8532C15.1911 19.1982 14.9978 19.666 14.9978 20.1539V25.5131H224.659V20.1539C224.659 19.666 224.465 19.1982 224.121 18.8532C223.777 18.5083 223.31 18.3145 222.823 18.3145Z" fill="#3F3D56"/>
<path d="M14.9978 25.513V146.114C14.9978 147.098 15.3876 148.041 16.0816 148.736C16.7755 149.432 17.7166 149.823 18.6979 149.823H220.958C221.94 149.823 222.881 149.432 223.575 148.736C224.269 148.041 224.659 147.098 224.659 146.114V25.513H14.9978Z" fill="white"/>
<path opacity="0.8" d="M18.3185 22.7196C18.7921 22.7196 19.176 22.3348 19.176 21.8601C19.176 21.3853 18.7921 21.0005 18.3185 21.0005C17.8449 21.0005 17.461 21.3853 17.461 21.8601C17.461 22.3348 17.8449 22.7196 18.3185 22.7196Z" fill="#FA5959"/>
<path opacity="0.8" d="M20.6766 22.7196C21.1502 22.7196 21.5342 22.3348 21.5342 21.8601C21.5342 21.3853 21.1502 21.0005 20.6766 21.0005C20.2031 21.0005 19.8191 21.3853 19.8191 21.8601C19.8191 22.3348 20.2031 22.7196 20.6766 22.7196Z" fill="#FED253"/>
<path opacity="0.8" d="M23.0348 22.7196C23.5084 22.7196 23.8923 22.3348 23.8923 21.8601C23.8923 21.3853 23.5084 21.0005 23.0348 21.0005C22.5612 21.0005 22.1773 21.3853 22.1773 21.8601C22.1773 22.3348 22.5612 22.7196 23.0348 22.7196Z" fill="#8CCF4D"/>
<path opacity="0.05" d="M202.987 45.6218H34.4868V119.89H202.987V45.6218Z" fill="black"/>
<path d="M201.701 46.1848H35.7731V118.815H201.701V46.1848Z" fill="#3F3D56"/>
<path d="M81.0066 64.8774C77.7418 64.8774 74.5504 65.8478 71.8358 67.6659C69.1212 69.484 67.0055 72.0681 65.7561 75.0915C64.5067 78.1149 64.1798 81.4418 64.8168 84.6514C65.4537 87.861 67.0258 90.8092 69.3344 93.1232C71.6429 95.4372 74.5842 97.013 77.7863 97.6515C80.9883 98.2899 84.3073 97.9622 87.3236 96.7099C90.3398 95.4576 92.9179 93.3368 94.7317 90.6159C96.5455 87.8949 97.5136 84.6959 97.5136 81.4234C97.5136 79.2505 97.0867 77.099 96.2571 75.0915C95.4276 73.0841 94.2117 71.2601 92.6789 69.7236C91.146 68.1872 89.3263 66.9684 87.3236 66.1369C85.3209 65.3054 83.1744 64.8774 81.0066 64.8774ZM83.9672 81.8209V89.6556H78.1318V81.8209C77.3243 81.2082 76.7292 80.3568 76.4304 79.3868C76.1316 78.4168 76.1444 77.3772 76.4668 76.4149C76.7892 75.4525 77.405 74.616 78.2272 74.0233C79.0495 73.4306 80.0367 73.1118 81.0495 73.1118C82.0623 73.1118 83.0495 73.4306 83.8717 74.0233C84.694 74.616 85.3098 75.4525 85.6322 76.4149C85.9546 77.3772 85.9673 78.4168 85.6686 79.3868C85.3698 80.3568 84.7747 81.2082 83.9672 81.8209Z" fill="#6C63FF"/>
<path opacity="0.05" d="M81.0066 64.8774C77.7418 64.8774 74.5504 65.8478 71.8358 67.6659C69.1212 69.484 67.0055 72.0681 65.7561 75.0915C64.5067 78.1149 64.1798 81.4418 64.8168 84.6514C65.4537 87.861 67.0258 90.8092 69.3344 93.1232C71.6429 95.4372 74.5842 97.013 77.7863 97.6515C80.9883 98.2899 84.3073 97.9622 87.3236 96.7099C90.3398 95.4576 92.9179 93.3368 94.7317 90.6159C96.5455 87.8949 97.5136 84.6959 97.5136 81.4234C97.5136 79.2505 97.0867 77.099 96.2571 75.0915C95.4276 73.0841 94.2117 71.2601 92.6789 69.7236C91.146 68.1872 89.3263 66.9684 87.3236 66.1369C85.3209 65.3054 83.1744 64.8774 81.0066 64.8774ZM83.9672 81.8209V89.6556H78.1318V81.8209C77.3243 81.2082 76.7292 80.3568 76.4304 79.3868C76.1316 78.4168 76.1444 77.3772 76.4668 76.4149C76.7892 75.4525 77.405 74.616 78.2272 74.0233C79.0495 73.4306 80.0367 73.1118 81.0495 73.1118C82.0623 73.1118 83.0495 73.4306 83.8717 74.0233C84.694 74.616 85.3098 75.4525 85.6322 76.4149C85.9546 77.3772 85.9673 78.4168 85.6686 79.3868C85.3698 80.3568 84.7747 81.2082 83.9672 81.8209Z" fill="black"/>
<path d="M81.0066 60.15C76.809 60.15 72.7057 61.3977 69.2156 63.7352C65.7254 66.0728 63.0052 69.3952 61.3988 73.2824C59.7925 77.1696 59.3722 81.447 60.1911 85.5736C61.01 89.7002 63.0313 93.4908 65.9995 96.4659C68.9676 99.4411 72.7492 101.467 76.8662 102.288C80.9831 103.109 85.2504 102.688 89.1284 101.077C93.0065 99.4673 96.3211 96.7406 98.6532 93.2422C100.985 89.7438 102.23 85.6309 102.23 81.4234C102.23 75.7813 99.9939 70.3704 96.0138 66.3808C92.0336 62.3913 86.6354 60.15 81.0066 60.15ZM84.8118 81.9348V92.0064H77.3086V81.9348C76.27 81.1469 75.5044 80.052 75.1201 78.8045C74.7358 77.557 74.752 76.2201 75.1666 74.9823C75.5811 73.7446 76.3731 72.6687 77.4306 71.9064C78.4881 71.1442 79.7577 70.7341 81.0602 70.7341C82.3628 70.7341 83.6324 71.1442 84.6899 71.9064C85.7474 72.6687 86.5393 73.7446 86.9539 74.9823C87.3684 76.2201 87.3847 77.557 87.0003 78.8045C86.616 80.052 85.8505 81.1469 84.8118 81.9348Z" fill="#6C63FF"/>
<path d="M179.62 78.632H111.019V85.9381H179.62V78.632Z" fill="white"/>
<path d="M179.62 91.9548H164.828V99.2608H179.62V91.9548Z" fill="#6C63FF"/>
<path d="M117.772 82.1755H116.531L117.635 81.071C117.655 81.0505 117.666 81.0232 117.666 80.9947C117.666 80.9662 117.655 80.9389 117.635 80.9184C117.625 80.9083 117.613 80.9003 117.6 80.8949C117.587 80.8894 117.573 80.8866 117.559 80.8866C117.545 80.8866 117.531 80.8894 117.518 80.8949C117.505 80.9003 117.493 80.9083 117.483 80.9184L116.379 82.0251V80.7787C116.379 80.7502 116.368 80.7229 116.347 80.7028C116.327 80.6826 116.3 80.6713 116.272 80.6713C116.243 80.6718 116.216 80.6833 116.196 80.7034C116.176 80.7234 116.165 80.7504 116.164 80.7787V82.0251L115.063 80.912C115.053 80.9019 115.041 80.8939 115.028 80.8884C115.015 80.883 115.001 80.8802 114.986 80.8802C114.972 80.8802 114.958 80.883 114.945 80.8884C114.932 80.8939 114.92 80.9019 114.91 80.912C114.891 80.9324 114.88 80.9598 114.88 80.9882C114.88 81.0167 114.891 81.0441 114.91 81.0645L116.014 82.169H114.771C114.743 82.1696 114.716 82.1811 114.696 82.2011C114.676 82.2211 114.664 82.2482 114.664 82.2765C114.664 82.305 114.675 82.3323 114.695 82.3524C114.715 82.3726 114.743 82.3839 114.771 82.3839H116.014L114.91 83.4906C114.891 83.511 114.88 83.5384 114.88 83.5669C114.88 83.5953 114.891 83.6227 114.91 83.6431C114.931 83.6625 114.958 83.6732 114.986 83.6732C115.015 83.6732 115.042 83.6625 115.063 83.6431L116.164 82.5365V83.7807C116.164 83.8092 116.176 83.8365 116.196 83.8566C116.216 83.8768 116.243 83.8881 116.272 83.8881C116.3 83.8881 116.327 83.8768 116.347 83.8566C116.368 83.8365 116.379 83.8092 116.379 83.7807V82.5365L117.483 83.6431C117.504 83.6625 117.531 83.6732 117.559 83.6732C117.587 83.6732 117.614 83.6625 117.635 83.6431C117.655 83.6227 117.666 83.5953 117.666 83.5669C117.666 83.5384 117.655 83.511 117.635 83.4906L116.531 82.3839H117.772C117.801 82.3839 117.828 82.3726 117.848 82.3524C117.868 82.3323 117.879 82.305 117.879 82.2765C117.878 82.2491 117.866 82.2234 117.846 82.2046C117.826 82.1859 117.8 82.1754 117.772 82.1755Z" fill="#6C63FF"/>
<path d="M122.274 82.1755H121.033L122.137 81.071C122.157 81.0505 122.168 81.0232 122.168 80.9947C122.168 80.9662 122.157 80.9389 122.137 80.9184C122.127 80.9083 122.115 80.9003 122.102 80.8949C122.089 80.8894 122.075 80.8866 122.061 80.8866C122.047 80.8866 122.033 80.8894 122.02 80.8949C122.007 80.9003 121.995 80.9083 121.985 80.9184L120.881 82.0251V80.7787C120.881 80.7502 120.869 80.7229 120.849 80.7028C120.829 80.6826 120.802 80.6713 120.774 80.6713C120.745 80.6718 120.718 80.6833 120.698 80.7034C120.678 80.7234 120.667 80.7504 120.666 80.7787V82.0251L119.564 80.912C119.555 80.9019 119.543 80.8939 119.53 80.8884C119.517 80.883 119.503 80.8802 119.488 80.8802C119.474 80.8802 119.46 80.883 119.447 80.8884C119.434 80.8939 119.422 80.9019 119.412 80.912C119.392 80.9324 119.381 80.9598 119.381 80.9882C119.381 81.0167 119.392 81.0441 119.412 81.0645L120.516 82.169H119.273C119.245 82.1696 119.218 82.1811 119.198 82.2011C119.178 82.2211 119.166 82.2482 119.166 82.2765C119.166 82.305 119.177 82.3323 119.197 82.3524C119.217 82.3726 119.244 82.3839 119.273 82.3839H120.516L119.412 83.4906C119.392 83.511 119.381 83.5384 119.381 83.5669C119.381 83.5953 119.392 83.6227 119.412 83.6431C119.433 83.6625 119.46 83.6732 119.488 83.6732C119.517 83.6732 119.544 83.6625 119.564 83.6431L120.666 82.5365V83.7807C120.666 83.8092 120.678 83.8365 120.698 83.8566C120.718 83.8768 120.745 83.8881 120.774 83.8881C120.802 83.8881 120.829 83.8768 120.849 83.8566C120.869 83.8365 120.881 83.8092 120.881 83.7807V82.5365L121.985 83.6431C122.005 83.6625 122.033 83.6732 122.061 83.6732C122.089 83.6732 122.116 83.6625 122.137 83.6431C122.157 83.6227 122.168 83.5953 122.168 83.5669C122.168 83.5384 122.157 83.511 122.137 83.4906L121.033 82.3839H122.274C122.303 82.3839 122.33 82.3726 122.35 82.3524C122.37 82.3323 122.381 82.305 122.381 82.2765C122.38 82.2491 122.368 82.2234 122.348 82.2046C122.328 82.1859 122.302 82.1754 122.274 82.1755Z" fill="#6C63FF"/>
<path d="M126.776 82.1755H125.535L126.639 81.071C126.659 81.0505 126.67 81.0232 126.67 80.9947C126.67 80.9662 126.659 80.9389 126.639 80.9184C126.629 80.9083 126.617 80.9003 126.604 80.8949C126.591 80.8894 126.577 80.8866 126.563 80.8866C126.549 80.8866 126.535 80.8894 126.522 80.8949C126.509 80.9003 126.497 80.9083 126.487 80.9184L125.383 82.0251V80.7787C125.383 80.7502 125.371 80.7229 125.351 80.7028C125.331 80.6826 125.304 80.6713 125.275 80.6713C125.247 80.6718 125.22 80.6833 125.2 80.7034C125.18 80.7234 125.169 80.7504 125.168 80.7787V82.0251L124.066 80.912C124.056 80.9019 124.045 80.8939 124.032 80.8884C124.018 80.883 124.004 80.8802 123.99 80.8802C123.976 80.8802 123.962 80.883 123.949 80.8884C123.936 80.8939 123.924 80.9019 123.914 80.912C123.894 80.9324 123.883 80.9598 123.883 80.9882C123.883 81.0167 123.894 81.0441 123.914 81.0645L125.018 82.169H123.775C123.747 82.1696 123.72 82.1811 123.7 82.2011C123.68 82.2211 123.668 82.2482 123.668 82.2765C123.668 82.305 123.679 82.3323 123.699 82.3524C123.719 82.3726 123.746 82.3839 123.775 82.3839H125.018L123.914 83.4906C123.894 83.511 123.883 83.5384 123.883 83.5669C123.883 83.5953 123.894 83.6227 123.914 83.6431C123.935 83.6625 123.962 83.6732 123.99 83.6732C124.019 83.6732 124.046 83.6625 124.066 83.6431L125.168 82.5365V83.7807C125.168 83.8092 125.18 83.8365 125.2 83.8566C125.22 83.8768 125.247 83.8881 125.275 83.8881C125.304 83.8881 125.331 83.8768 125.351 83.8566C125.371 83.8365 125.383 83.8092 125.383 83.7807V82.5365L126.487 83.6431C126.507 83.6625 126.535 83.6732 126.563 83.6732C126.591 83.6732 126.618 83.6625 126.639 83.6431C126.659 83.6227 126.67 83.5953 126.67 83.5669C126.67 83.5384 126.659 83.511 126.639 83.4906L125.535 82.3839H126.776C126.805 82.3839 126.832 82.3726 126.852 82.3524C126.872 82.3323 126.883 82.305 126.883 82.2765C126.882 82.2491 126.87 82.2234 126.85 82.2046C126.83 82.1859 126.803 82.1754 126.776 82.1755Z" fill="#6C63FF"/>
<path d="M131.278 82.1755H130.037L131.141 81.071C131.161 81.0505 131.172 81.0232 131.172 80.9947C131.172 80.9662 131.161 80.9389 131.141 80.9184C131.131 80.9083 131.119 80.9003 131.106 80.8949C131.093 80.8894 131.079 80.8866 131.065 80.8866C131.051 80.8866 131.037 80.8894 131.024 80.8949C131.01 80.9003 130.999 80.9083 130.989 80.9184L129.885 82.0251V80.7787C129.885 80.7502 129.873 80.7229 129.853 80.7028C129.833 80.6826 129.806 80.6713 129.777 80.6713C129.749 80.6718 129.722 80.6833 129.702 80.7034C129.682 80.7234 129.671 80.7504 129.67 80.7787V82.0251L128.568 80.912C128.558 80.9019 128.546 80.8939 128.533 80.8884C128.52 80.883 128.506 80.8802 128.492 80.8802C128.478 80.8802 128.464 80.883 128.451 80.8884C128.438 80.8939 128.426 80.9019 128.416 80.912C128.396 80.9324 128.385 80.9598 128.385 80.9882C128.385 81.0167 128.396 81.0441 128.416 81.0645L129.52 82.169H128.277C128.249 82.1696 128.222 82.1811 128.202 82.2011C128.182 82.2211 128.17 82.2482 128.17 82.2765C128.17 82.305 128.181 82.3323 128.201 82.3524C128.221 82.3726 128.248 82.3839 128.277 82.3839H129.52L128.416 83.4906C128.396 83.511 128.385 83.5384 128.385 83.5669C128.385 83.5953 128.396 83.6227 128.416 83.6431C128.437 83.6625 128.464 83.6732 128.492 83.6732C128.52 83.6732 128.548 83.6625 128.568 83.6431L129.67 82.5365V83.7807C129.67 83.8092 129.681 83.8365 129.702 83.8566C129.722 83.8768 129.749 83.8881 129.777 83.8881C129.806 83.8881 129.833 83.8768 129.853 83.8566C129.873 83.8365 129.885 83.8092 129.885 83.7807V82.5365L130.989 83.6431C131.009 83.6625 131.036 83.6732 131.065 83.6732C131.093 83.6732 131.12 83.6625 131.141 83.6431C131.161 83.6227 131.172 83.5953 131.172 83.5669C131.172 83.5384 131.161 83.511 131.141 83.4906L130.037 82.3839H131.278C131.306 82.3839 131.334 82.3726 131.354 82.3524C131.374 82.3323 131.385 82.305 131.385 82.2765C131.384 82.2491 131.372 82.2234 131.352 82.2046C131.332 82.1859 131.305 82.1754 131.278 82.1755Z" fill="#6C63FF"/>
<path d="M135.78 82.1755H134.539L135.643 81.071C135.663 81.0505 135.674 81.0232 135.674 80.9947C135.674 80.9662 135.663 80.9389 135.643 80.9184C135.633 80.9083 135.621 80.9003 135.608 80.8949C135.595 80.8894 135.581 80.8866 135.567 80.8866C135.552 80.8866 135.538 80.8894 135.525 80.8949C135.512 80.9003 135.501 80.9083 135.491 80.9184L134.387 82.0251V80.7787C134.387 80.7502 134.375 80.7229 134.355 80.7028C134.335 80.6826 134.308 80.6713 134.279 80.6713C134.251 80.6718 134.224 80.6833 134.204 80.7034C134.184 80.7234 134.173 80.7504 134.172 80.7787V82.0251L133.07 80.912C133.06 80.9019 133.048 80.8939 133.035 80.8884C133.022 80.883 133.008 80.8802 132.994 80.8802C132.98 80.8802 132.966 80.883 132.953 80.8884C132.94 80.8939 132.928 80.9019 132.918 80.912C132.898 80.9324 132.887 80.9598 132.887 80.9882C132.887 81.0167 132.898 81.0441 132.918 81.0645L134.022 82.169H132.779C132.75 82.1696 132.723 82.1811 132.703 82.2011C132.684 82.2211 132.672 82.2482 132.671 82.2765C132.671 82.305 132.683 82.3323 132.703 82.3524C132.723 82.3726 132.75 82.3839 132.779 82.3839H134.022L132.918 83.4906C132.898 83.511 132.887 83.5384 132.887 83.5669C132.887 83.5953 132.898 83.6227 132.918 83.6431C132.939 83.6625 132.966 83.6732 132.994 83.6732C133.022 83.6732 133.05 83.6625 133.07 83.6431L134.172 82.5365V83.7807C134.172 83.8092 134.183 83.8365 134.204 83.8566C134.224 83.8768 134.251 83.8881 134.279 83.8881C134.308 83.8881 134.335 83.8768 134.355 83.8566C134.375 83.8365 134.387 83.8092 134.387 83.7807V82.5365L135.491 83.6431C135.511 83.6625 135.538 83.6732 135.567 83.6732C135.595 83.6732 135.622 83.6625 135.643 83.6431C135.663 83.6227 135.674 83.5953 135.674 83.5669C135.674 83.5384 135.663 83.511 135.643 83.4906L134.539 82.3839H135.78C135.808 82.3839 135.836 82.3726 135.856 82.3524C135.876 82.3323 135.887 82.305 135.887 82.2765C135.886 82.2491 135.873 82.2234 135.854 82.2046C135.834 82.1859 135.807 82.1754 135.78 82.1755Z" fill="#6C63FF"/>
<path d="M140.282 82.1755H139.041L140.145 81.071C140.164 81.0505 140.175 81.0232 140.175 80.9947C140.175 80.9662 140.164 80.9389 140.145 80.9184C140.135 80.9083 140.123 80.9003 140.11 80.8949C140.097 80.8894 140.083 80.8866 140.069 80.8866C140.054 80.8866 140.04 80.8894 140.027 80.8949C140.014 80.9003 140.002 80.9083 139.992 80.9184L138.888 82.0251V80.7787C138.888 80.7502 138.877 80.7229 138.857 80.7028C138.837 80.6826 138.81 80.6713 138.781 80.6713C138.753 80.6718 138.726 80.6833 138.706 80.7034C138.686 80.7234 138.675 80.7504 138.674 80.7787V82.0251L137.572 80.912C137.562 80.9019 137.55 80.8939 137.537 80.8884C137.524 80.883 137.51 80.8802 137.496 80.8802C137.482 80.8802 137.468 80.883 137.455 80.8884C137.442 80.8939 137.43 80.9019 137.42 80.912C137.4 80.9324 137.389 80.9598 137.389 80.9882C137.389 81.0167 137.4 81.0441 137.42 81.0645L138.524 82.169H137.281C137.252 82.1696 137.225 82.1811 137.205 82.2011C137.185 82.2211 137.174 82.2482 137.173 82.2765C137.173 82.305 137.185 82.3323 137.205 82.3524C137.225 82.3726 137.252 82.3839 137.281 82.3839H138.524L137.42 83.4906C137.4 83.511 137.389 83.5384 137.389 83.5669C137.389 83.5953 137.4 83.6227 137.42 83.6431C137.441 83.6625 137.468 83.6732 137.496 83.6732C137.524 83.6732 137.551 83.6625 137.572 83.6431L138.674 82.5365V83.7807C138.674 83.8092 138.685 83.8365 138.705 83.8566C138.726 83.8768 138.753 83.8881 138.781 83.8881C138.81 83.8881 138.837 83.8768 138.857 83.8566C138.877 83.8365 138.888 83.8092 138.888 83.7807V82.5365L139.992 83.6431C140.013 83.6625 140.04 83.6732 140.069 83.6732C140.097 83.6732 140.124 83.6625 140.145 83.6431C140.164 83.6227 140.175 83.5953 140.175 83.5669C140.175 83.5384 140.164 83.511 140.145 83.4906L139.041 82.3839H140.282C140.31 82.3839 140.338 82.3726 140.358 82.3524C140.378 82.3323 140.389 82.305 140.389 82.2765C140.387 82.2491 140.375 82.2234 140.355 82.2046C140.336 82.1859 140.309 82.1754 140.282 82.1755Z" fill="#6C63FF"/>
<path d="M144.784 82.1755H143.543L144.647 81.071C144.666 81.0505 144.677 81.0232 144.677 80.9947C144.677 80.9662 144.666 80.9389 144.647 80.9184C144.637 80.9083 144.625 80.9003 144.612 80.8949C144.599 80.8894 144.585 80.8866 144.57 80.8866C144.556 80.8866 144.542 80.8894 144.529 80.8949C144.516 80.9003 144.504 80.9083 144.494 80.9184L143.39 82.0251V80.7787C143.39 80.7502 143.379 80.7229 143.359 80.7028C143.339 80.6826 143.312 80.6713 143.283 80.6713C143.255 80.6718 143.228 80.6833 143.208 80.7034C143.188 80.7234 143.177 80.7504 143.176 80.7787V82.0251L142.074 80.912C142.064 80.9019 142.052 80.8939 142.039 80.8884C142.026 80.883 142.012 80.8802 141.998 80.8802C141.984 80.8802 141.97 80.883 141.957 80.8884C141.944 80.8939 141.932 80.9019 141.922 80.912C141.902 80.9324 141.891 80.9598 141.891 80.9882C141.891 81.0167 141.902 81.0441 141.922 81.0645L143.026 82.169H141.783C141.754 82.1696 141.727 82.1811 141.707 82.2011C141.687 82.2211 141.676 82.2482 141.675 82.2765C141.675 82.305 141.687 82.3323 141.707 82.3524C141.727 82.3726 141.754 82.3839 141.783 82.3839H143.026L141.922 83.4906C141.902 83.511 141.891 83.5384 141.891 83.5669C141.891 83.5953 141.902 83.6227 141.922 83.6431C141.942 83.6625 141.97 83.6732 141.998 83.6732C142.026 83.6732 142.053 83.6625 142.074 83.6431L143.176 82.5365V83.7807C143.176 83.8092 143.187 83.8365 143.207 83.8566C143.227 83.8768 143.255 83.8881 143.283 83.8881C143.312 83.8881 143.339 83.8768 143.359 83.8566C143.379 83.8365 143.39 83.8092 143.39 83.7807V82.5365L144.494 83.6431C144.515 83.6625 144.542 83.6732 144.57 83.6732C144.599 83.6732 144.626 83.6625 144.647 83.6431C144.666 83.6227 144.677 83.5953 144.677 83.5669C144.677 83.5384 144.666 83.511 144.647 83.4906L143.543 82.3839H144.784C144.812 82.3839 144.839 82.3726 144.86 82.3524C144.88 82.3323 144.891 82.305 144.891 82.2765C144.889 82.2491 144.877 82.2234 144.857 82.2046C144.837 82.1859 144.811 82.1754 144.784 82.1755Z" fill="#6C63FF"/>
<path d="M149.286 82.1755H148.044L149.148 81.071C149.168 81.0505 149.179 81.0232 149.179 80.9947C149.179 80.9662 149.168 80.9389 149.148 80.9184C149.139 80.9083 149.127 80.9003 149.114 80.8949C149.101 80.8894 149.087 80.8866 149.072 80.8866C149.058 80.8866 149.044 80.8894 149.031 80.8949C149.018 80.9003 149.006 80.9083 148.996 80.9184L147.892 82.0251V80.7787C147.892 80.7502 147.881 80.7229 147.861 80.7028C147.841 80.6826 147.813 80.6713 147.785 80.6713C147.757 80.6718 147.73 80.6833 147.71 80.7034C147.69 80.7234 147.678 80.7504 147.678 80.7787V82.0251L146.576 80.912C146.566 80.9019 146.554 80.8939 146.541 80.8884C146.528 80.883 146.514 80.8802 146.5 80.8802C146.486 80.8802 146.472 80.883 146.459 80.8884C146.446 80.8939 146.434 80.9019 146.424 80.912C146.404 80.9324 146.393 80.9598 146.393 80.9882C146.393 81.0167 146.404 81.0441 146.424 81.0645L147.528 82.169H146.284C146.256 82.1696 146.229 82.1811 146.209 82.2011C146.189 82.2211 146.178 82.2482 146.177 82.2765C146.177 82.305 146.189 82.3323 146.209 82.3524C146.229 82.3726 146.256 82.3839 146.284 82.3839H147.528L146.424 83.4906C146.404 83.511 146.393 83.5384 146.393 83.5669C146.393 83.5953 146.404 83.6227 146.424 83.6431C146.444 83.6625 146.472 83.6732 146.5 83.6732C146.528 83.6732 146.555 83.6625 146.576 83.6431L147.678 82.5365V83.7807C147.678 83.8092 147.689 83.8365 147.709 83.8566C147.729 83.8768 147.757 83.8881 147.785 83.8881C147.813 83.8881 147.841 83.8768 147.861 83.8566C147.881 83.8365 147.892 83.8092 147.892 83.7807V82.5365L148.996 83.6431C149.017 83.6625 149.044 83.6732 149.072 83.6732C149.101 83.6732 149.128 83.6625 149.148 83.6431C149.168 83.6227 149.179 83.5953 149.179 83.5669C149.179 83.5384 149.168 83.511 149.148 83.4906L148.044 82.3839H149.286C149.314 82.3839 149.341 82.3726 149.361 82.3524C149.382 82.3323 149.393 82.305 149.393 82.2765C149.391 82.2491 149.379 82.2234 149.359 82.2046C149.339 82.1859 149.313 82.1754 149.286 82.1755Z" fill="#6C63FF"/>
<path d="M153.788 82.1755H152.546L153.65 81.071C153.67 81.0505 153.681 81.0232 153.681 80.9947C153.681 80.9662 153.67 80.9389 153.65 80.9184C153.64 80.9083 153.629 80.9003 153.616 80.8949C153.602 80.8894 153.588 80.8866 153.574 80.8866C153.56 80.8866 153.546 80.8894 153.533 80.8949C153.52 80.9003 153.508 80.9083 153.498 80.9184L152.394 82.0251V80.7787C152.394 80.7502 152.383 80.7229 152.363 80.7028C152.343 80.6826 152.315 80.6713 152.287 80.6713C152.259 80.6718 152.232 80.6833 152.212 80.7034C152.192 80.7234 152.18 80.7504 152.18 80.7787V82.0251L151.078 80.912C151.068 80.9019 151.056 80.8939 151.043 80.8884C151.03 80.883 151.016 80.8802 151.002 80.8802C150.988 80.8802 150.974 80.883 150.961 80.8884C150.948 80.8939 150.936 80.9019 150.926 80.912C150.906 80.9324 150.895 80.9598 150.895 80.9882C150.895 81.0167 150.906 81.0441 150.926 81.0645L152.03 82.169H150.786C150.758 82.1696 150.731 82.1811 150.711 82.2011C150.691 82.2211 150.68 82.2482 150.679 82.2765C150.679 82.305 150.69 82.3323 150.711 82.3524C150.731 82.3726 150.758 82.3839 150.786 82.3839H152.03L150.926 83.4906C150.906 83.511 150.895 83.5384 150.895 83.5669C150.895 83.5953 150.906 83.6227 150.926 83.6431C150.946 83.6625 150.974 83.6732 151.002 83.6732C151.03 83.6732 151.057 83.6625 151.078 83.6431L152.18 82.5365V83.7807C152.18 83.8092 152.191 83.8365 152.211 83.8566C152.231 83.8768 152.259 83.8881 152.287 83.8881C152.315 83.8881 152.343 83.8768 152.363 83.8566C152.383 83.8365 152.394 83.8092 152.394 83.7807V82.5365L153.498 83.6431C153.519 83.6625 153.546 83.6732 153.574 83.6732C153.603 83.6732 153.63 83.6625 153.65 83.6431C153.67 83.6227 153.681 83.5953 153.681 83.5669C153.681 83.5384 153.67 83.511 153.65 83.4906L152.546 82.3839H153.788C153.816 82.3839 153.843 82.3726 153.863 82.3524C153.884 82.3323 153.895 82.305 153.895 82.2765C153.893 82.2491 153.881 82.2234 153.861 82.2046C153.841 82.1859 153.815 82.1754 153.788 82.1755Z" fill="#6C63FF"/>
<path d="M158.29 82.1755H157.048L158.152 81.071C158.172 81.0505 158.183 81.0232 158.183 80.9947C158.183 80.9662 158.172 80.9389 158.152 80.9184C158.142 80.9083 158.131 80.9003 158.117 80.8949C158.104 80.8894 158.09 80.8866 158.076 80.8866C158.062 80.8866 158.048 80.8894 158.035 80.8949C158.022 80.9003 158.01 80.9083 158 80.9184L156.896 82.0251V80.7787C156.896 80.7502 156.885 80.7229 156.865 80.7028C156.845 80.6826 156.817 80.6713 156.789 80.6713C156.761 80.6718 156.734 80.6833 156.714 80.7034C156.694 80.7234 156.682 80.7504 156.682 80.7787V82.0251L155.58 80.912C155.57 80.9019 155.558 80.8939 155.545 80.8884C155.532 80.883 155.518 80.8802 155.504 80.8802C155.49 80.8802 155.476 80.883 155.462 80.8884C155.449 80.8939 155.438 80.9019 155.428 80.912C155.408 80.9324 155.397 80.9598 155.397 80.9882C155.397 81.0167 155.408 81.0441 155.428 81.0645L156.532 82.169H155.288C155.26 82.1696 155.233 82.1811 155.213 82.2011C155.193 82.2211 155.182 82.2482 155.181 82.2765C155.181 82.305 155.192 82.3323 155.212 82.3524C155.233 82.3726 155.26 82.3839 155.288 82.3839H156.532L155.428 83.4906C155.408 83.511 155.397 83.5384 155.397 83.5669C155.397 83.5953 155.408 83.6227 155.428 83.6431C155.448 83.6625 155.475 83.6732 155.504 83.6732C155.532 83.6732 155.559 83.6625 155.58 83.6431L156.682 82.5365V83.7807C156.682 83.8092 156.693 83.8365 156.713 83.8566C156.733 83.8768 156.76 83.8881 156.789 83.8881C156.817 83.8881 156.845 83.8768 156.865 83.8566C156.885 83.8365 156.896 83.8092 156.896 83.7807V82.5365L158 83.6431C158.021 83.6625 158.048 83.6732 158.076 83.6732C158.104 83.6732 158.132 83.6625 158.152 83.6431C158.172 83.6227 158.183 83.5953 158.183 83.5669C158.183 83.5384 158.172 83.511 158.152 83.4906L157.048 82.3839H158.29C158.318 82.3839 158.345 82.3726 158.365 82.3524C158.385 82.3323 158.397 82.305 158.397 82.2765C158.395 82.2491 158.383 82.2234 158.363 82.2046C158.343 82.1859 158.317 82.1754 158.29 82.1755Z" fill="#6C63FF"/>
<path d="M162.791 82.1755H161.55L162.654 81.071C162.674 81.0505 162.685 81.0232 162.685 80.9947C162.685 80.9662 162.674 80.9389 162.654 80.9184C162.644 80.9083 162.632 80.9003 162.619 80.8949C162.606 80.8894 162.592 80.8866 162.578 80.8866C162.564 80.8866 162.55 80.8894 162.537 80.8949C162.524 80.9003 162.512 80.9083 162.502 80.9184L161.398 82.0251V80.7787C161.398 80.7502 161.387 80.7229 161.367 80.7028C161.347 80.6826 161.319 80.6713 161.291 80.6713C161.263 80.6718 161.236 80.6833 161.216 80.7034C161.196 80.7234 161.184 80.7504 161.184 80.7787V82.0251L160.082 80.912C160.072 80.9019 160.06 80.8939 160.047 80.8884C160.034 80.883 160.02 80.8802 160.006 80.8802C159.991 80.8802 159.977 80.883 159.964 80.8884C159.951 80.8939 159.939 80.9019 159.93 80.912C159.91 80.9324 159.899 80.9598 159.899 80.9882C159.899 81.0167 159.91 81.0441 159.93 81.0645L161.034 82.169H159.79C159.762 82.1696 159.735 82.1811 159.715 82.2011C159.695 82.2211 159.684 82.2482 159.683 82.2765C159.683 82.305 159.694 82.3323 159.714 82.3524C159.734 82.3726 159.762 82.3839 159.79 82.3839H161.034L159.93 83.4906C159.91 83.511 159.899 83.5384 159.899 83.5669C159.899 83.5953 159.91 83.6227 159.93 83.6431C159.95 83.6625 159.977 83.6732 160.006 83.6732C160.034 83.6732 160.061 83.6625 160.082 83.6431L161.184 82.5365V83.7807C161.184 83.8092 161.195 83.8365 161.215 83.8566C161.235 83.8768 161.262 83.8881 161.291 83.8881C161.319 83.8881 161.347 83.8768 161.367 83.8566C161.387 83.8365 161.398 83.8092 161.398 83.7807V82.5365L162.502 83.6431C162.523 83.6625 162.55 83.6732 162.578 83.6732C162.606 83.6732 162.634 83.6625 162.654 83.6431C162.674 83.6227 162.685 83.5953 162.685 83.5669C162.685 83.5384 162.674 83.511 162.654 83.4906L161.55 82.3839H162.791C162.82 82.3839 162.847 82.3726 162.867 82.3524C162.887 82.3323 162.899 82.305 162.899 82.2765C162.897 82.2491 162.885 82.2234 162.865 82.2046C162.845 82.1859 162.819 82.1754 162.791 82.1755Z" fill="#6C63FF"/>
<path d="M197.304 108.316C197.298 108.056 197.266 107.798 197.208 107.545C197.015 106.818 196.579 105.939 195.863 105.72C195.124 105.493 194.41 105.191 193.732 104.818C193.604 102.514 194.131 100.157 193.557 97.9242C193.342 97.1077 192.989 96.3255 192.894 95.4896C192.776 94.4496 193.059 93.3408 192.646 92.3824C192.32 91.626 191.604 91.0931 190.834 90.8137C190.064 90.5344 189.235 90.4592 188.418 90.384C187.389 90.3002 184.058 89.9048 182.896 90.8266C182.816 90.889 182.744 90.9612 182.681 91.0415C182.656 91.077 182.633 91.1143 182.613 91.1533L182.602 91.1705C182.579 91.2152 182.559 91.262 182.544 91.3101C182.528 91.3628 182.516 91.4167 182.508 91.4713C182.508 91.4885 182.508 91.5057 182.508 91.5229C182.508 91.5401 182.508 91.5981 182.508 91.6368V91.6948C182.508 91.7334 182.508 91.7721 182.508 91.813C182.508 91.8538 182.508 91.843 182.508 91.8581C182.523 92.0515 182.551 92.2449 182.551 92.4361C182.553 92.5313 182.544 92.6265 182.525 92.7198C182.453 92.9732 182.332 93.2099 182.169 93.416L182.13 93.4719C182.107 93.5062 182.083 93.5385 182.062 93.5728C182.04 93.6072 182.023 93.633 182.006 93.6631C181.989 93.6932 181.972 93.7125 181.957 93.7405C181.936 93.7759 181.917 93.8125 181.901 93.85C181.901 93.8715 181.877 93.8909 181.869 93.9124C181.842 93.9705 181.82 94.0309 181.805 94.0929C181.754 94.2796 181.75 94.4757 181.792 94.6644C181.849 94.9055 181.949 95.1346 182.085 95.3413C182.139 95.4294 182.197 95.5154 182.257 95.6013L182.407 95.8055C182.379 96.0048 182.364 96.2058 182.362 96.4071C182.362 97.08 182.514 97.7441 182.808 98.3494C183.101 98.9546 183.528 99.4852 184.055 99.9011C184.14 100.809 184.131 101.722 184.028 102.628C184.008 102.817 183.985 103.008 183.959 103.197C183.933 103.387 183.914 103.511 183.888 103.668C183.575 103.713 183.255 103.689 182.951 103.597C182.811 103.535 182.668 103.479 182.523 103.432C181.899 103.275 181.262 103.898 180.645 103.709C180.645 103.739 180.628 103.767 180.617 103.795C180.488 103.715 180.34 103.671 180.188 103.668C179.822 103.651 179.524 103.384 179.258 103.133L178.441 102.362C178.388 102.314 178.34 102.261 178.299 102.203C178.256 102.119 178.222 102.03 178.201 101.938C178.064 101.493 177.731 101.139 177.41 100.802C177.349 100.725 177.268 100.666 177.176 100.632C177.141 100.626 177.104 100.626 177.069 100.632C177.047 100.602 177.023 100.573 176.998 100.546C176.943 100.482 176.883 100.422 176.82 100.365C176.43 100.004 176.392 99.6949 176.053 99.2909C175.757 98.9056 175.489 98.4999 175.251 98.0768C175.223 97.8512 175.185 97.6191 175.137 97.3849C175.029 96.8486 174.872 96.3235 174.668 95.8162L174.239 94.8643L174.19 94.9137C173.879 94.4496 173.547 94.196 173.249 94.2562C172.749 94.3593 172.503 95.3306 172.582 96.6005L172.754 97.8898C172.754 97.9221 172.769 97.9543 172.777 97.9865C172.746 98.1393 172.73 98.2948 172.73 98.4507C172.73 98.6312 172.897 98.7644 172.985 98.9256C173.126 99.1439 173.2 99.3984 173.199 99.6583C173.189 99.7507 173.161 99.8388 173.157 99.9291C173.168 100.131 173.238 100.325 173.358 100.488L174.43 102.293L174.644 102.671L174.657 102.688C174.725 102.82 174.823 102.934 174.944 103.019C174.986 103.471 175.106 103.912 175.298 104.323C175.335 104.405 175.375 104.482 175.418 104.56C175.706 105.035 176.046 105.476 176.43 105.877L176.94 106.451C177.444 107.014 177.948 107.579 178.495 108.099C178.69 108.308 178.927 108.474 179.189 108.587C179.318 108.638 179.458 108.655 179.595 108.635C179.732 108.615 179.861 108.559 179.969 108.473C179.969 108.739 179.969 109.006 179.969 109.272C180.049 109.277 180.126 109.303 180.192 109.348C180.258 109.392 180.311 109.454 180.346 109.526C180.38 109.598 180.395 109.678 180.388 109.758C180.382 109.837 180.354 109.914 180.308 109.979C179.858 111.137 179.404 112.306 178.722 113.344C179.203 113.63 179.649 113.971 180.051 114.361C180.312 114.65 180.544 114.965 180.743 115.3C180.763 115.459 180.778 115.616 180.786 115.772C180.945 118.334 179.957 120.876 179.071 123.317C178.816 124.009 178.537 124.733 178.559 125.453C178.391 125.557 178.23 125.672 178.079 125.799C178.254 126.259 178.186 126.669 178.167 127.161C178.16 127.456 178.1 127.748 177.989 128.021C177.895 128.21 177.792 128.394 177.68 128.573C177.125 129.555 177.002 130.722 176.891 131.843C176.825 132.52 177.086 133.348 176.78 133.954C176.25 134.994 175.781 136.102 175.708 137.259C175.705 137.519 175.672 137.778 175.609 138.03C175.543 138.245 175.425 138.427 175.365 138.638C175.303 138.92 175.288 139.211 175.322 139.498C175.363 140.528 175.21 141.556 174.872 142.53C174.604 143.297 174.308 144.118 174.518 144.906C174.001 145.451 173.681 146.154 173.611 146.902C173.606 147.094 173.583 147.285 173.542 147.472C173.477 147.663 173.391 147.847 173.285 148.02C172.854 148.808 172.652 149.701 172.702 150.598C172.059 151.473 171.737 152.552 171.547 153.624C171.356 154.696 171.272 155.788 171.028 156.847C170.702 158.248 170.112 159.664 169.997 161.1C169.302 161.545 169.002 162.406 168.869 163.221C168.736 164.035 168.715 164.89 168.374 165.642C168.198 166.033 167.945 166.384 167.778 166.783C167.661 167.102 167.574 167.431 167.521 167.765C167.418 168.29 167.328 168.874 167.454 169.377C167.272 169.57 167.06 169.732 166.826 169.856C166.86 169.723 166.888 169.59 166.912 169.454C166.359 169.957 165.355 169.781 164.914 170.385C164.781 170.58 164.729 170.818 164.769 171.05C164.809 171.283 164.938 171.49 165.128 171.629C165.266 171.713 165.416 171.778 165.572 171.82C166.644 172.164 167.746 172.51 168.848 172.327C168.978 172.313 169.104 172.273 169.218 172.209C169.362 172.103 169.48 171.967 169.564 171.81C169.729 171.547 169.894 171.285 170.057 171.023C170.452 171.141 170.853 171.235 171.259 171.305C171.3 171.648 171.33 171.992 171.345 172.336C171.559 172.379 171.847 172.392 171.947 172.192C171.978 172.116 171.991 172.035 171.984 171.954C171.984 171.801 172.005 171.599 172.018 171.393H172.061C172.715 171.419 173.366 171.287 173.958 171.008C173.729 169.104 174.486 167.243 175.142 165.443C175.834 163.547 176.428 161.618 177.026 159.688C177.455 158.33 177.929 157.015 178.349 155.655C178.878 153.936 179.409 152.217 179.942 150.497C180.173 149.741 180.407 148.993 180.673 148.241C181.232 146.719 181.896 145.238 182.66 143.808C182.874 143.402 183.089 143 183.264 142.579C183.479 142.065 183.631 141.528 183.803 140.997C184.176 139.908 184.626 138.847 185.149 137.822C185.164 137.794 185.175 137.768 185.19 137.742C185.363 138.453 185.537 139.175 185.653 139.891C185.809 140.768 185.822 141.665 185.689 142.547C185.586 143.146 185.391 143.739 185.415 144.348C185.447 145.188 185.895 145.951 186.116 146.761C186.258 147.367 186.338 147.986 186.356 148.609C186.416 149.576 186.939 150.661 186.57 151.557C185.423 154.395 185.978 157.601 185.325 160.582C184.988 162.112 183.957 163.549 184.038 165.114C184.096 166.224 184.193 167.331 184.33 168.436C184.363 168.784 184.453 169.125 184.598 169.444C184.683 169.611 184.782 169.772 184.892 169.925C184.797 169.962 184.718 170.058 184.649 170.262C184.474 170.8 184.649 171.466 185.125 171.767C185.319 171.871 185.528 171.943 185.745 171.981C186.036 172.064 186.338 172.106 186.641 172.106C186.735 172.101 186.829 172.089 186.922 172.072C187.253 172.211 187.592 172.333 187.936 172.437C187.936 172.525 187.953 172.613 187.964 172.701C187.964 172.747 187.974 172.793 187.994 172.835C188.013 172.876 188.041 172.914 188.075 172.944C188.129 172.969 188.188 172.98 188.247 172.974H189.411C189.411 172.878 189.411 172.779 189.411 172.682C189.544 172.696 189.678 172.682 189.806 172.64C189.933 172.599 190.051 172.531 190.15 172.441C190.253 172.31 190.326 172.157 190.365 171.994C190.682 170.916 190.997 169.836 191.31 168.756C191.685 167.562 191.841 166.31 191.771 165.06C191.357 161.1 192.266 157.127 191.97 153.156C191.792 150.769 191.915 148.369 192.335 146.013C192.431 145.48 192.549 144.938 192.592 144.408C192.686 143.406 192.571 142.394 192.641 141.399C192.665 141.051 192.712 140.705 192.755 140.359C193.049 138.212 193.203 136.048 193.216 133.881C193.209 133.162 193.165 132.445 193.083 131.732C193.306 131.675 193.509 131.556 193.668 131.388C193.859 131.139 193.81 130.788 193.807 130.47C193.807 129.71 194.127 128.992 194.384 128.274C194.714 127.284 194.985 126.275 195.194 125.253C195.416 124.429 195.537 123.581 195.555 122.728C195.555 122.642 195.55 122.556 195.542 122.47C195.623 122.414 195.69 122.341 195.739 122.255C195.795 122.129 195.83 121.995 195.842 121.858C195.919 121.31 195.998 120.76 196.076 120.21C196.133 119.816 196.189 119.423 196.245 119.03L196.927 114.262C196.985 113.847 197.045 113.434 197.102 113.022L197.28 111.788C197.3 111.642 197.321 111.496 197.336 111.359C197.859 110.482 197.36 109.313 197.304 108.316ZM191.617 126.168C191.364 125.567 191.128 124.95 191.188 124.301H191.164C191.221 124.101 191.211 123.889 191.136 123.695C191.07 123.538 190.954 123.405 190.883 123.248C190.807 123.057 190.768 122.853 190.768 122.646C190.714 121.34 190.817 120.031 191.074 118.749C191.102 118.598 191.132 118.446 191.16 118.295C191.25 118.243 191.332 118.179 191.404 118.104C191.517 117.975 191.61 117.83 191.681 117.674C191.923 117.186 192.144 116.69 192.348 116.185C192.414 116.022 192.511 115.833 192.676 115.792C192.641 117.049 192.77 118.332 192.26 119.466C192.163 119.649 192.091 119.844 192.045 120.046C191.998 120.367 192.131 120.691 192.084 121.009C192.06 121.175 191.99 121.327 191.962 121.49C191.941 121.571 191.941 121.655 191.963 121.735C191.985 121.815 192.027 121.888 192.086 121.946C192.114 121.966 192.145 121.982 192.178 121.993C192.165 122.079 192.155 122.167 192.146 122.251C192.129 122.427 192.12 122.593 192.11 122.696C192.06 123.222 192.041 123.75 192.052 124.277C192.052 124.847 192.073 125.416 192.065 125.997C192.073 126.163 192.045 126.329 191.983 126.484C191.941 126.564 191.886 126.637 191.82 126.699C191.758 126.506 191.689 126.336 191.617 126.168Z" fill="url(#paint0_linear)"/>
<path d="M174.694 101.235C175.348 101.101 175.571 99.4871 175.191 97.6304C174.812 95.7737 173.974 94.3775 173.32 94.5118C172.666 94.6462 172.443 96.2602 172.822 98.1169C173.202 99.9736 174.04 101.37 174.694 101.235Z" fill="#FBBEBE"/>
<path d="M184.684 170.303C184.508 170.836 184.684 171.502 185.16 171.792C185.352 171.895 185.56 171.968 185.775 172.007C186.066 172.09 186.367 172.131 186.669 172.13C187.04 172.113 187.395 171.966 187.766 171.915C187.809 171.904 187.854 171.91 187.893 171.932C187.911 171.952 187.925 171.976 187.933 172.002C187.942 172.028 187.944 172.055 187.94 172.082C187.944 172.294 187.96 172.505 187.987 172.714C187.987 172.76 187.998 172.806 188.017 172.848C188.036 172.89 188.064 172.927 188.099 172.957C188.152 172.982 188.211 172.992 188.27 172.987H189.432C189.458 171.964 189.347 170.942 189.1 169.949C189.084 169.873 189.055 169.8 189.014 169.734C188.915 169.626 188.786 169.551 188.643 169.519C188.359 169.4 188.052 169.347 187.745 169.362C187.37 169.411 187.057 169.654 186.737 169.856C186.418 170.058 185.983 170.237 185.595 170.133C185.207 170.03 184.883 169.706 184.684 170.303Z" fill="#3F3D56"/>
<path d="M167.623 169.36C167.297 169.71 166.896 169.984 166.451 170.159L166.254 170.254C166.226 170.264 166.203 170.283 166.187 170.308C166.183 170.324 166.183 170.342 166.187 170.358C166.191 170.375 166.198 170.391 166.209 170.404C166.373 170.659 166.615 170.852 166.899 170.956C167.183 171.059 167.493 171.067 167.782 170.978C167.91 170.946 168.028 170.884 168.127 170.797C168.291 170.603 168.384 170.359 168.393 170.106C168.458 169.844 168.447 169.568 168.361 169.313C168.063 168.64 167.954 168.945 167.623 169.36Z" fill="#FBBEBE"/>
<path d="M172.078 172.007C172.085 172.089 172.072 172.17 172.042 172.246C171.941 172.443 171.66 172.433 171.442 172.39C171.408 171.661 171.32 170.935 171.178 170.219C170.762 170.2 170.462 170.595 170.239 170.95L169.664 171.863C169.581 172.021 169.464 172.157 169.321 172.263C169.206 172.326 169.081 172.366 168.95 172.381C167.853 172.564 166.745 172.218 165.686 171.874C165.53 171.832 165.38 171.768 165.242 171.685C165.053 171.546 164.925 171.339 164.885 171.107C164.845 170.876 164.896 170.638 165.027 170.443C165.471 169.841 166.468 170.013 167.021 169.515C166.963 169.865 166.869 170.209 166.738 170.54C167.478 170.428 167.975 169.749 168.571 169.295C168.721 169.168 168.901 169.082 169.094 169.046C169.239 169.034 169.384 169.049 169.523 169.091C170.21 169.265 170.853 169.582 171.409 170.022C171.634 170.2 171.986 170.451 172.085 170.727C172.19 171.055 172.078 171.657 172.078 172.007Z" fill="#3F3D56"/>
<path d="M186.825 101.109C189.271 101.109 191.254 99.1212 191.254 96.6693C191.254 94.2175 189.271 92.2298 186.825 92.2298C184.379 92.2298 182.396 94.2175 182.396 96.6693C182.396 99.1212 184.379 101.109 186.825 101.109Z" fill="#FBBEBE"/>
<path d="M195.55 122.881C195.533 123.729 195.412 124.573 195.192 125.393C194.983 126.411 194.712 127.415 194.382 128.401C194.127 129.117 193.808 129.834 193.81 130.593C193.81 130.909 193.861 131.259 193.668 131.508C193.496 131.683 193.28 131.807 193.042 131.867C192.924 131.899 192.814 131.958 192.723 132.039C192.631 132.121 192.56 132.223 192.515 132.338C192.314 132.036 192.163 131.704 192.069 131.354C191.684 130.173 191.327 128.986 190.997 127.793C190.967 127.724 190.954 127.649 190.959 127.574C190.964 127.499 190.988 127.427 191.027 127.363C191.081 127.316 191.145 127.28 191.214 127.258C191.433 127.168 191.635 127.038 191.807 126.875C191.888 126.803 191.955 126.717 192.005 126.62C192.067 126.466 192.095 126.3 192.088 126.134C192.088 125.565 192.088 124.997 192.073 124.428C192.064 123.902 192.084 123.376 192.133 122.853C192.133 122.75 192.153 122.584 192.17 122.408C192.202 122.071 192.266 121.68 192.448 121.548C192.721 121.366 193.535 121.611 193.844 121.654C194.376 121.727 194.916 121.813 195.435 121.914C195.51 122.231 195.549 122.555 195.55 122.881Z" fill="#3F3D56"/>
<path d="M177.667 101.64C177.496 101.983 177.084 102.149 176.767 102.366L175.68 103.114C175.607 103.179 175.522 103.229 175.43 103.261C175.337 103.293 175.239 103.306 175.142 103.298C175.053 103.266 174.972 103.216 174.903 103.151C174.835 103.086 174.779 103.009 174.741 102.922C174.742 102.917 174.742 102.911 174.741 102.905L174.516 102.527L173.444 100.726C173.325 100.565 173.255 100.372 173.245 100.172C173.245 100.08 173.277 99.9936 173.285 99.9012C173.288 99.6416 173.213 99.3872 173.071 99.1706C172.985 99.0094 172.814 98.8762 172.818 98.6957C172.81 98.4585 172.851 98.2222 172.938 98.0016C173.05 97.7976 173.212 97.6248 173.407 97.4988C173.508 97.4257 173.611 97.357 173.718 97.2839C173.775 97.2449 173.838 97.2159 173.905 97.198C174.083 97.1614 174.258 97.3097 174.439 97.3161C175.212 97.8361 175.51 98.8203 176.119 99.5294C176.462 99.9334 176.497 100.243 176.885 100.604C176.947 100.66 177.007 100.72 177.065 100.782C177.141 100.866 177.206 100.96 177.258 101.062C177.328 101.246 177.755 101.463 177.667 101.64Z" fill="#3F3D56"/>
<path d="M185.269 101.111C185.588 101.788 185.837 102.531 185.745 103.275C185.726 103.476 185.662 103.671 185.558 103.844C185.25 104.319 184.602 104.405 184.038 104.433C183.92 104.423 183.8 104.437 183.687 104.474C183.573 104.511 183.468 104.57 183.378 104.648C183.303 104.758 183.266 104.889 183.273 105.022C183.281 105.155 183.332 105.282 183.419 105.383C183.6 105.577 183.825 105.724 184.075 105.813C184.967 106.206 185.929 106.53 186.898 106.44C187.348 106.397 187.786 106.266 188.234 106.199C188.722 106.146 189.213 106.119 189.704 106.118C190.287 106.096 190.868 106.038 191.449 105.98L192.989 105.828C193.073 105.829 193.154 105.799 193.218 105.744C193.332 105.611 193.186 105.415 193.044 105.314C192.228 104.708 191.188 104.291 190.723 103.38C190.508 102.95 190.442 102.439 190.283 101.975C190.124 101.511 189.872 101.092 189.773 100.619C189.72 100.204 189.697 99.7863 189.702 99.3683C189.708 98.9467 189.554 98.5386 189.273 98.2251C188.967 97.9393 188.523 97.8662 188.107 97.849C187.082 97.8039 185.991 98.0489 185.265 98.773C185.069 98.9686 184.902 99.2028 184.701 99.379C184.499 99.5552 184.225 99.6068 184.358 99.8388C184.491 100.071 184.752 100.215 184.894 100.419C185.037 100.639 185.162 100.871 185.269 101.111Z" fill="#FBBEBE"/>
<path d="M194 107.362C193.73 109.017 193.29 110.639 192.688 112.203C192.386 112.91 192.128 113.634 191.917 114.374C191.752 115.04 191.784 115.753 191.632 116.421C191.443 117.253 191.254 118.087 191.102 118.925C190.847 120.204 190.744 121.51 190.798 122.814C190.798 123.019 190.837 123.223 190.913 123.414C190.984 123.568 191.098 123.702 191.164 123.861C191.214 124 191.234 124.149 191.224 124.297C191.214 124.445 191.173 124.589 191.104 124.72C190.994 124.966 190.845 125.193 190.663 125.391C188.665 125.988 186.527 125.792 184.446 125.919C182.527 126.035 180.587 126.431 178.696 126.102C178.482 125.242 178.84 124.342 179.146 123.504C180.036 121.069 181.02 118.534 180.861 115.983C180.845 115.685 180.811 115.389 180.761 115.096C180.45 113.288 180.788 111.417 181.331 109.665C181.667 108.574 181.652 107.411 181.575 106.275C181.537 105.905 181.532 105.534 181.56 105.164C181.591 104.786 181.731 104.425 181.963 104.126C181.963 104.111 181.982 104.096 181.993 104.081C182.004 104.066 182.088 104.068 182.154 104.081C182.171 104.088 182.189 104.092 182.208 104.092C182.226 104.092 182.244 104.088 182.261 104.081L182.285 104.066C182.294 104.059 182.305 104.056 182.316 104.056C182.327 104.056 182.338 104.059 182.347 104.066C182.396 104.096 182.424 104.199 182.531 104.218C182.69 104.242 182.849 104.257 183.009 104.263C183.202 104.269 183.393 104.296 183.58 104.345H183.605C183.884 104.392 184.17 104.368 184.437 104.274C184.615 104.23 184.786 104.163 184.947 104.076C184.994 104.025 185.29 103.977 185.35 103.941C185.545 103.823 185.503 103.268 185.543 103.041C185.566 102.812 185.62 102.588 185.704 102.374C185.802 102.217 185.936 102.086 186.096 101.992C186.256 101.899 186.437 101.847 186.622 101.839C186.991 101.831 187.36 101.864 187.721 101.938C188.521 102.052 189.34 102.033 190.125 102.218C190.519 102.31 190.95 102.45 191.312 102.269C191.411 102.293 191.426 102.379 191.426 102.484C191.417 102.584 191.396 102.683 191.366 102.778C191.229 103.372 191.694 103.917 192.122 104.347C192.304 104.55 192.517 104.72 192.755 104.852C192.969 104.951 193.184 104.992 193.398 105.099C193.572 105.192 193.719 105.327 193.827 105.492C193.95 105.682 194.034 105.895 194.071 106.118C194.117 106.533 194.093 106.954 194 107.362Z" fill="#3F3D56"/>
<path opacity="0.1" d="M194 107.362C193.73 109.017 193.29 110.639 192.688 112.203C192.386 112.91 192.128 113.634 191.917 114.374C191.752 115.04 191.784 115.753 191.632 116.421C191.443 117.253 191.254 118.087 191.102 118.925C191.057 118.951 191.01 118.974 190.963 118.996C190.696 119.123 190.413 119.214 190.122 119.266C189.6 119.33 189.07 119.312 188.553 119.215L185.494 118.804C184.272 118.639 182.971 118.439 182.064 117.61C181.56 117.154 181.23 116.552 180.868 115.972C180.851 115.675 180.817 115.378 180.767 115.085C180.456 113.278 180.795 111.406 181.337 109.655C181.674 108.563 181.659 107.401 181.582 106.264C181.543 105.895 181.538 105.523 181.567 105.153C181.598 104.775 181.738 104.414 181.97 104.115C182.032 104.097 182.096 104.082 182.16 104.072C182.204 104.063 182.247 104.058 182.291 104.055H182.353C182.426 104.055 182.498 104.064 182.568 104.081C182.714 104.127 182.857 104.182 182.996 104.246H183.022C183.206 104.307 183.399 104.334 183.592 104.328C183.875 104.328 184.167 104.283 184.45 104.263C184.8 104.209 185.157 104.273 185.466 104.446C185.665 104.606 185.854 104.779 186.032 104.964C186.247 105.133 186.488 105.264 186.746 105.353C188.591 106.059 190.639 106.016 192.453 105.232C192.627 105.133 192.825 105.083 193.025 105.086C193.173 105.115 193.313 105.175 193.437 105.262C193.565 105.338 193.692 105.411 193.822 105.477C193.946 105.667 194.029 105.88 194.067 106.103C194.116 106.523 194.094 106.949 194 107.362Z" fill="black"/>
<path d="M195.868 105.939C195.014 105.678 194.194 105.317 193.424 104.865C193.3 104.778 193.16 104.718 193.012 104.689C192.811 104.686 192.613 104.737 192.438 104.835C190.624 105.618 188.578 105.661 186.733 104.955C186.475 104.866 186.234 104.734 186.019 104.566C185.841 104.382 185.652 104.21 185.453 104.048C184.748 103.591 183.773 104.128 182.984 103.834C182.844 103.771 182.701 103.716 182.555 103.668C181.931 103.511 181.296 104.134 180.683 103.945C180.455 104.567 180.287 105.209 180.18 105.862C180.092 106.612 180.046 107.367 180.04 108.123C180.04 108.576 180.019 109.029 180.04 109.483C180.116 109.495 180.188 109.523 180.252 109.565C180.316 109.607 180.371 109.661 180.413 109.726C180.441 109.8 180.453 109.881 180.447 109.96C180.441 110.04 180.418 110.118 180.379 110.188C179.931 111.342 179.476 112.508 178.797 113.542C179.276 113.828 179.72 114.168 180.122 114.556C180.872 115.351 181.241 116.466 182.051 117.201C182.964 118.029 184.266 118.231 185.481 118.394L188.54 118.804C189.058 118.902 189.588 118.92 190.112 118.858C190.402 118.805 190.684 118.713 190.95 118.585C191.124 118.512 191.282 118.407 191.417 118.276C191.53 118.147 191.623 118.002 191.694 117.846C191.936 117.36 192.157 116.864 192.36 116.361C192.431 116.183 192.538 115.974 192.731 115.959C193.868 114.932 194.939 113.879 196.076 112.852C196.532 112.473 196.942 112.04 197.295 111.563C197.859 110.727 197.347 109.543 197.295 108.533C197.289 108.275 197.257 108.018 197.199 107.766C197.015 107.033 196.582 106.156 195.868 105.939Z" fill="#6C63FF"/>
<path opacity="0.1" d="M177.667 101.64C177.496 101.983 177.084 102.149 176.767 102.366L175.68 103.114C175.607 103.179 175.522 103.229 175.43 103.261C175.337 103.293 175.239 103.306 175.142 103.298C175.053 103.266 174.972 103.216 174.903 103.151C174.835 103.086 174.779 103.009 174.741 102.922C174.741 102.873 174.741 102.819 174.741 102.768C174.733 102.594 174.756 102.42 174.809 102.254C174.916 102.011 175.081 101.798 175.29 101.635C175.693 101.252 176.173 100.959 176.698 100.776C176.78 100.744 176.869 100.735 176.955 100.75C176.989 100.759 177.02 100.772 177.05 100.791C177.126 100.875 177.191 100.969 177.243 101.07C177.328 101.246 177.755 101.463 177.667 101.64Z" fill="black"/>
<path d="M180.227 103.904C179.862 103.887 179.564 103.623 179.298 103.372L178.486 102.615C178.432 102.569 178.384 102.516 178.344 102.456C178.301 102.373 178.267 102.284 178.246 102.192C178.074 101.758 177.804 101.369 177.457 101.057C177.397 100.98 177.315 100.922 177.223 100.89C177.136 100.873 177.046 100.882 176.964 100.915C176.439 101.099 175.959 101.392 175.555 101.775C175.347 101.938 175.182 102.151 175.075 102.394C175.021 102.559 174.998 102.733 175.007 102.907C175.012 103.475 175.139 104.035 175.38 104.549C175.416 104.629 175.457 104.708 175.5 104.785C175.786 105.259 176.124 105.7 176.507 106.098L177.018 106.67C177.519 107.233 178.021 107.796 178.565 108.314C178.76 108.523 178.997 108.688 179.26 108.799C179.392 108.853 179.536 108.87 179.677 108.847C179.817 108.824 179.949 108.763 180.057 108.671C180.16 108.551 180.237 108.412 180.285 108.262C180.615 107.403 180.928 106.509 180.947 105.583C180.952 105.212 180.936 104.841 180.9 104.472C180.868 104.081 180.591 103.928 180.227 103.904Z" fill="#6C63FF"/>
<path d="M193.218 133.988C193.206 136.15 193.052 138.308 192.759 140.45C192.716 140.796 192.669 141.141 192.646 141.487C192.575 142.491 192.691 143.499 192.596 144.496C192.547 145.035 192.435 145.57 192.341 146.097C191.922 148.446 191.8 150.84 191.977 153.22C192.273 157.18 191.366 161.143 191.777 165.092C191.827 165.86 191.785 166.632 191.651 167.389C191.574 167.86 191.463 168.324 191.319 168.778C191.006 169.853 190.691 170.928 190.375 172.001C190.338 172.164 190.265 172.317 190.161 172.448C190.052 172.543 189.923 172.613 189.785 172.654C189.646 172.695 189.5 172.706 189.357 172.686C188.12 172.648 186.956 172.113 185.833 171.59C185.704 171.539 185.584 171.467 185.479 171.375C185.245 171.133 185.265 170.75 185.162 170.43C185.059 170.11 184.78 169.809 184.621 169.48C184.491 169.169 184.412 168.839 184.388 168.503C184.245 167.402 184.148 166.298 184.096 165.189C184.015 163.629 185.044 162.194 185.382 160.676C186.026 157.694 185.481 154.496 186.624 151.666C186.984 150.773 186.461 149.69 186.409 148.727C186.391 148.106 186.31 147.488 186.169 146.883C185.955 146.075 185.503 145.315 185.47 144.476C185.447 143.87 185.642 143.28 185.743 142.682C185.876 141.803 185.864 140.908 185.706 140.033C185.593 139.311 185.419 138.589 185.245 137.884L185.207 137.963C184.684 138.987 184.235 140.046 183.863 141.133C183.691 141.659 183.541 142.197 183.327 142.708C183.151 143.138 182.934 143.531 182.722 143.935C181.961 145.36 181.298 146.835 180.739 148.351C180.473 149.094 180.24 149.855 180.008 150.601L178.42 155.758C177.991 157.114 177.521 158.425 177.101 159.778C176.507 161.712 175.913 163.629 175.223 165.52C174.58 167.314 173.815 169.173 174.044 171.068C173.453 171.347 172.804 171.479 172.151 171.453C171.046 171.355 169.962 171.091 168.935 170.671C168.526 170.518 168.102 170.346 167.825 170.009C167.349 169.427 167.467 168.573 167.611 167.832C167.665 167.498 167.751 167.17 167.868 166.852C168.031 166.457 168.297 166.107 168.464 165.715C168.8 164.966 168.822 164.117 168.955 163.302C169.088 162.488 169.384 161.628 170.078 161.186C170.196 159.755 170.783 158.343 171.107 156.944C171.352 155.885 171.433 154.795 171.626 153.721C171.819 152.646 172.13 151.572 172.777 150.702C172.726 149.804 172.928 148.911 173.36 148.123C173.465 147.95 173.55 147.766 173.615 147.575C173.655 147.388 173.678 147.199 173.684 147.008C173.755 146.261 174.073 145.56 174.589 145.016C174.374 144.231 174.672 143.413 174.94 142.652C175.278 141.681 175.43 140.656 175.39 139.629C175.357 139.342 175.371 139.052 175.431 138.769C175.491 138.554 175.609 138.372 175.678 138.165C175.739 137.913 175.771 137.654 175.774 137.394C175.858 136.231 176.327 135.136 176.846 134.098C177.155 133.492 176.893 132.669 176.957 131.994C177.069 130.872 177.191 129.712 177.746 128.734C177.849 128.549 177.961 128.373 178.053 128.182C178.165 127.909 178.225 127.617 178.231 127.322C178.25 126.83 178.319 126.422 178.143 125.964C179.29 125.008 180.855 124.739 182.347 124.675C183.839 124.611 185.348 124.746 186.808 124.428C187.237 124.331 187.666 124.198 188.118 124.134C189.145 123.983 190.187 124.217 191.201 124.449C191.13 125.094 191.366 125.713 191.629 126.312C192.659 128.741 193.199 131.35 193.218 133.988Z" fill="#33313F"/>
<path opacity="0.1" d="M188.169 134.48L185.706 140.033C185.593 139.311 185.419 138.589 185.245 137.884L185.207 137.963V137.847L186.549 134.888L188.169 134.48Z" fill="black"/>
<path opacity="0.1" d="M195.55 122.881C195.408 122.987 195.239 123.051 195.062 123.063C194.79 123.073 194.519 123.036 194.26 122.954L192.33 122.47C192.27 122.455 192.211 122.434 192.155 122.408C192.187 122.071 192.251 121.68 192.433 121.548C192.706 121.366 193.52 121.611 193.829 121.654C194.361 121.727 194.901 121.813 195.42 121.914C195.5 122.23 195.544 122.554 195.55 122.881Z" fill="black"/>
<path d="M197.182 110.095C197.223 110.274 197.28 110.45 197.315 110.63C197.372 111.073 197.357 111.522 197.27 111.96L197.094 113.19L196.918 114.425L196.239 119.18L196.071 120.358L195.836 122.002C195.824 122.139 195.79 122.272 195.733 122.397C195.662 122.514 195.564 122.612 195.447 122.681C195.33 122.75 195.198 122.789 195.062 122.795C194.79 122.803 194.519 122.766 194.26 122.685L192.33 122.2C192.246 122.184 192.165 122.152 192.095 122.103C192.036 122.045 191.993 121.973 191.971 121.893C191.949 121.813 191.949 121.729 191.97 121.649C191.998 121.486 192.069 121.334 192.092 121.17C192.14 120.852 192.007 120.526 192.054 120.21C192.1 120.009 192.172 119.814 192.268 119.632C192.911 118.207 192.538 116.544 192.757 114.997C192.954 113.779 193.467 112.635 194.245 111.679C194.725 111.076 195.276 110.533 195.887 110.063C196.127 109.876 196.509 109.491 196.811 109.418C197.199 109.337 197.117 109.824 197.182 110.095Z" fill="#6C63FF"/>
<path d="M182.581 91.5852C182.439 92.0365 182.66 92.5328 182.559 92.9927C182.45 93.4998 181.974 93.8522 181.839 94.3615C181.624 95.1372 182.28 95.8442 182.761 96.4888C184.54 98.8826 184.306 102.196 183.697 105.116C183.208 107.459 182.53 109.759 181.672 111.993C181.404 112.687 181.108 113.391 180.58 113.912C181.567 113.628 182.615 113.342 183.603 113.617C184.855 113.965 185.936 115.184 187.205 114.906C187.968 114.737 188.504 114.058 189.19 113.682C190.476 112.988 192.026 113.424 193.46 113.647C193.769 113.72 194.093 113.704 194.393 113.6C194.622 113.476 194.817 113.297 194.959 113.078C195.599 112.255 195.982 111.26 196.061 110.22C196.095 109.702 196.018 109.182 195.837 108.696C195.655 108.209 195.373 107.767 195.008 107.398C194.704 107.11 194.339 106.878 194.105 106.539C193.878 106.142 193.756 105.694 193.752 105.237C193.582 102.873 194.157 100.46 193.565 98.1735C193.351 97.3591 193.001 96.5791 192.907 95.7453C192.789 94.7074 193.07 93.5965 192.658 92.6467C192.335 91.8925 191.621 91.3574 190.851 91.0824C190.082 90.8073 189.258 90.73 188.442 90.6526C187.267 90.5538 183.072 90.0488 182.581 91.5852Z" fill="#33313F"/>
<g opacity="0.1">
<path opacity="0.1" d="M183.697 105.116C183.21 107.45 182.536 109.74 181.682 111.965C181.83 111.67 181.955 111.361 182.072 111.054C182.932 108.82 183.609 106.521 184.098 104.177C184.709 101.255 184.943 97.9457 183.164 95.5498C182.735 94.9782 182.184 94.3593 182.203 93.6889C182.045 93.8917 181.922 94.1198 181.839 94.3636C181.624 95.1394 182.28 95.8463 182.761 96.491C184.54 98.8826 184.306 102.196 183.697 105.116Z" fill="black"/>
<path opacity="0.1" d="M182.585 92.7757C182.757 92.5615 182.885 92.3154 182.962 92.0515C182.995 91.7323 182.987 91.4101 182.936 91.0931C182.771 91.2177 182.647 91.3891 182.581 91.5852C182.454 91.9655 182.6 92.3781 182.585 92.7757Z" fill="black"/>
<path opacity="0.1" d="M195.362 112.132C195.22 112.351 195.025 112.53 194.796 112.652C194.496 112.758 194.172 112.775 193.863 112.7C192.429 112.485 190.862 112.042 189.593 112.736C188.905 113.11 188.371 113.789 187.606 113.961C186.339 114.245 185.258 113.026 184.006 112.672C183.119 112.425 182.184 112.629 181.29 112.887C181.112 113.266 180.873 113.613 180.58 113.914C181.567 113.63 182.615 113.344 183.603 113.619C184.855 113.967 185.936 115.186 187.205 114.909C187.968 114.739 188.504 114.06 189.19 113.684C190.476 112.99 192.026 113.426 193.46 113.649C193.769 113.722 194.093 113.706 194.393 113.602C194.622 113.478 194.817 113.299 194.959 113.08C195.347 112.566 195.647 111.991 195.846 111.378C195.703 111.641 195.541 111.893 195.362 112.132Z" fill="black"/>
</g>
</g>
<defs>
<linearGradient id="paint0_linear" x1="164.77" y1="131.599" x2="197.57" y2="131.599" gradientUnits="userSpaceOnUse">
<stop stop-color="#808080" stop-opacity="0.25"/>
<stop offset="0.54" stop-color="#808080" stop-opacity="0.12"/>
<stop offset="1" stop-color="#808080" stop-opacity="0.1"/>
</linearGradient>
<clipPath id="clip0">
<rect width="250" height="173" fill="white"/>
</clipPath>
</defs>
</svg>
