<svg width="300" height="170" viewBox="0 0 300 170" fill="none" xmlns="http://www.w3.org/2000/svg">
<g clip-path="url(#clip0)">
<path d="M37.1607 37.72C45.6212 34.1165 56.159 36.3996 66.4502 37.9843C66.546 36.0653 67.7068 33.7298 66.4908 32.391C65.0136 30.7645 65.1496 29.0555 66.0385 27.3367C68.3117 22.9413 65.0548 18.2644 61.7664 14.3756C61.0252 13.5011 60.0885 12.814 59.0323 12.37C57.9761 11.9261 56.8303 11.7379 55.6878 11.8208L49.5963 12.2565C48.114 12.3625 46.6994 12.9193 45.5417 13.8525C44.3841 14.7856 43.5386 16.0505 43.1185 17.4779C41.6639 19.4589 40.8854 21.4344 41.3756 23.3996C39.1969 24.8905 38.8309 26.6902 39.8099 28.7191C40.64 29.9965 40.6312 31.24 39.7721 32.4491C38.6439 33.9906 37.7798 35.7093 37.2152 37.535L37.1607 37.72Z" fill="#2F2E41"/>
<path d="M238.218 146.962H65.7819C64.2484 146.962 62.7778 146.352 61.6935 145.266C60.6092 144.181 60 142.708 60 141.172C122.508 133.898 183.841 133.898 244 141.172C244 142.708 243.391 144.181 242.307 145.266C241.222 146.352 239.752 146.962 238.218 146.962Z" fill="#2F2E41"/>
<path d="M244 141.513L60 141.172L81.325 105.241L81.427 105.07V25.881C81.4269 24.9198 81.6159 23.968 81.9832 23.08C82.3505 22.192 82.8888 21.3851 83.5676 20.7054C84.2463 20.0258 85.052 19.4866 85.9388 19.1188C86.8256 18.751 87.7761 18.5618 88.736 18.5619H214.244C215.204 18.5618 216.154 18.751 217.041 19.1188C217.928 19.4866 218.733 20.0258 219.412 20.7054C220.091 21.3851 220.629 22.192 220.996 23.08C221.364 23.968 221.553 24.9198 221.553 25.881V105.615L244 141.513Z" fill="#3F3D56"/>
<path d="M88.5693 23.6706C87.9381 23.6713 87.333 23.9228 86.8866 24.3697C86.4403 24.8167 86.1892 25.4226 86.1885 26.0547V98.2587C86.1893 98.8907 86.4403 99.4967 86.8867 99.9437C87.333 100.391 87.9381 100.642 88.5693 100.643H215.431C216.062 100.642 216.667 100.391 217.113 99.9436C217.56 99.4967 217.811 98.8907 217.811 98.2587V26.0547C217.811 25.4227 217.56 24.8167 217.113 24.3697C216.667 23.9228 216.062 23.6714 215.431 23.6706H88.5693Z" fill="white"/>
<path d="M89.1009 110.179C88.9059 110.179 88.715 110.236 88.5507 110.341C88.3865 110.446 88.2557 110.597 88.1739 110.774L81.603 125.078C81.5315 125.234 81.5002 125.405 81.512 125.576C81.5239 125.747 81.5785 125.912 81.6708 126.057C81.7631 126.201 81.8901 126.32 82.0403 126.402C82.1904 126.484 82.3587 126.527 82.5299 126.527H220.712C220.886 126.527 221.057 126.483 221.209 126.398C221.361 126.313 221.489 126.191 221.58 126.043C221.671 125.894 221.723 125.725 221.731 125.551C221.739 125.377 221.702 125.204 221.624 125.048L214.482 110.744C214.398 110.574 214.268 110.431 214.106 110.331C213.945 110.231 213.759 110.179 213.57 110.179H89.1009Z" fill="#2F2E41"/>
<path d="M151.49 22.4786C152.335 22.4786 153.02 21.7924 153.02 20.946C153.02 20.0995 152.335 19.4133 151.49 19.4133C150.645 19.4133 149.959 20.0995 149.959 20.946C149.959 21.7924 150.645 22.4786 151.49 22.4786Z" fill="white"/>
<path d="M137.908 129.252C137.683 129.252 137.465 129.326 137.287 129.463C137.109 129.6 136.981 129.791 136.923 130.008L135.274 136.138C135.234 136.29 135.228 136.449 135.259 136.602C135.289 136.756 135.354 136.901 135.45 137.026C135.545 137.15 135.667 137.251 135.808 137.32C135.948 137.39 136.103 137.426 136.259 137.426H167.605C167.768 137.426 167.928 137.387 168.073 137.312C168.217 137.238 168.342 137.129 168.436 136.997C168.531 136.864 168.592 136.711 168.615 136.549C168.638 136.388 168.622 136.224 168.569 136.07L166.45 129.939C166.381 129.739 166.25 129.565 166.078 129.441C165.905 129.318 165.698 129.252 165.486 129.252H137.908Z" fill="#2F2E41"/>
<path d="M221.553 103.878V105.241H81.3249L81.4305 105.07V103.878H221.553Z" fill="#2F2E41"/>
<path d="M81.0837 64.1903L62.9597 73.8393L62.7303 65.7984C68.6458 64.8095 74.2739 63.0878 79.4778 60.2847L81.3733 55.5951C81.5799 55.0841 81.9156 54.6357 82.3474 54.2938C82.7793 53.952 83.2926 53.7285 83.8368 53.6453C84.381 53.562 84.9375 53.622 85.4516 53.8191C85.9657 54.0163 86.4197 54.344 86.7691 54.77C87.2804 55.3933 87.5359 56.1878 87.484 56.9927C87.4321 57.7976 87.0767 58.5527 86.4896 59.1049L81.0837 64.1903Z" fill="#FFB8B8"/>
<path d="M36.7994 119.9C36.6672 119.414 36.6391 118.906 36.7171 118.409C36.795 117.912 36.9771 117.437 37.2515 117.015L41.2329 110.896C42.1745 109.449 43.6195 108.404 45.2873 107.963C46.9551 107.523 48.727 107.718 50.259 108.512C48.5858 111.364 48.819 113.866 50.8369 116.04C47.7044 117.572 44.8093 119.548 42.2412 121.908C41.7723 122.228 41.2339 122.432 40.6708 122.501C40.1076 122.571 39.536 122.504 39.0036 122.308C38.4712 122.111 37.9934 121.79 37.61 121.372C37.2266 120.953 36.9487 120.448 36.7994 119.9Z" fill="#2F2E41"/>
<path d="M81.9092 111.9C81.3067 112.905 80.4563 113.739 79.4395 114.32C78.4227 114.902 77.2737 115.212 76.1027 115.221L49.6534 115.422L48.5063 108.759L60.2067 105.313L50.3417 97.7319L61.1243 85.0964L80.7089 103.375C81.8536 104.444 82.5973 105.873 82.8158 107.425C83.0343 108.976 82.7142 110.556 81.9092 111.9Z" fill="#2F2E41"/>
<path d="M45.5239 157.464H39.3296C33.768 119.288 28.1069 81.006 44.8357 66.7174L64.5656 69.9337L62.042 86.7045L51.0299 99.3401L45.5239 157.464Z" fill="#2F2E41"/>
<path d="M50.969 166.112C50.4841 166.244 49.9767 166.272 49.4801 166.194C48.9836 166.116 48.5091 165.934 48.088 165.659L41.3623 164.754C39.9171 163.811 38.8731 162.364 38.433 160.694C37.9929 159.024 38.188 157.249 38.9804 155.715C41.8287 157.391 44.3272 157.157 46.4985 155.136C48.0326 158.238 50.5603 158.049 52.9743 160.662C53.294 161.132 53.497 161.671 53.5664 162.235C53.6358 162.799 53.5697 163.371 53.3735 163.904C53.1773 164.437 52.8567 164.916 52.4385 165.3C52.0202 165.684 51.5164 165.962 50.969 166.112Z" fill="#2F2E41"/>
<path d="M60.2066 41.2165L48.7357 38.4597C50.6409 34.5546 50.7978 30.2094 49.8828 25.5944L57.683 25.3646C57.9274 31.1035 58.6669 36.4651 60.2066 41.2165Z" fill="#FFB8B8"/>
<path d="M63.3592 76.851C55.0089 82.5491 49.1087 77.0459 44.6062 68.5553C45.2319 63.3598 44.2188 57.1423 42.3426 50.3865C41.5082 47.4067 41.8197 44.222 43.2157 41.461C44.6116 38.7 46.9906 36.5634 49.8828 35.4731L59.7478 39.6084C68.1243 46.4457 69.773 53.8519 66.6303 61.6632L63.3592 76.851Z" fill="#6C63FF"/>
<path d="M39.3296 46.96L30.1529 51.7844L46.4416 61.4334L48.708 67.0318C48.8593 67.4055 48.933 67.8061 48.9246 68.2092C48.9162 68.6123 48.826 69.0095 48.6593 69.3765C48.4926 69.7436 48.253 70.0728 47.9552 70.344C47.6573 70.6153 47.3074 70.823 46.9267 70.9545C46.494 71.1039 46.0327 71.151 45.5788 71.092C45.1249 71.0331 44.6908 70.8697 44.3104 70.6147C43.9301 70.3597 43.6139 70.02 43.3866 69.6222C43.1592 69.2244 43.027 68.7793 43.0001 68.3218L42.7709 64.42L22.0682 57.5786C21.3707 57.3481 20.7347 56.9617 20.2084 56.4486C19.682 55.9355 19.2792 55.3092 19.0304 54.6171C18.6678 53.6083 18.6493 52.5076 18.9779 51.4872C19.3066 50.4668 19.9637 49.5842 20.8466 48.9777L37.4943 37.5407L39.3296 46.96Z" fill="#FFB8B8"/>
<path d="M48.5063 47.8789C44.6791 46.1993 41.1988 48.0239 36.806 49.4871L36.1178 37.311C40.4796 34.9829 44.6384 34.3552 48.5063 36.1623L48.5063 47.8789Z" fill="#6C63FF"/>
<path d="M53.0846 31.3959C57.1294 31.3959 60.4083 28.1123 60.4083 24.0619C60.4083 20.0115 57.1294 16.728 53.0846 16.728C49.0398 16.728 45.7609 20.0115 45.7609 24.0619C45.7609 28.1123 49.0398 31.3959 53.0846 31.3959Z" fill="#FFB8B8"/>
<path d="M61.8462 23.1366C54.595 23.8478 49.0697 22.6602 45.5385 19.2789V16.5558H61.2308L61.8462 23.1366Z" fill="#2F2E41"/>
<path d="M151.277 89.1394C165.662 89.1394 177.323 77.4619 177.323 63.0569C177.323 48.652 165.662 36.9745 151.277 36.9745C136.892 36.9745 125.231 48.652 125.231 63.0569C125.231 77.4619 136.892 89.1394 151.277 89.1394Z" fill="#69F0AE"/>
<path d="M139.972 59.5752L149.738 68.5415L163.575 48.1655L168.462 52.2419L149.738 76.6944L135.902 61.2082L139.972 59.5752Z" fill="white"/>
</g>
<defs>
<clipPath id="clip0">
<rect width="244" height="170" fill="white"/>
</clipPath>
</defs>
</svg>
