<svg width="190" height="157" viewBox="0 0 190 157" fill="none" xmlns="http://www.w3.org/2000/svg">
<path d="M184.03 147H5.97042C4.38696 147 2.86836 146.349 1.74869 145.19C0.629023 144.032 0 142.46 0 140.822C64.5464 133.059 127.88 133.059 190 140.822C190 142.46 189.371 144.032 188.251 145.19C187.132 146.349 185.613 147 184.03 147Z" fill="#2F2E41"/>
<path d="M190 142L0 141.648L22.0203 104.533L22.1257 104.357V22.5602C22.1256 21.5674 22.3208 20.5842 22.7 19.6669C23.0793 18.7497 23.6352 17.9162 24.3361 17.2141C25.0369 16.5121 25.869 15.9552 26.7847 15.5753C27.7004 15.1954 28.6819 14.9999 29.673 15H159.273C160.265 14.9999 161.246 15.1954 162.162 15.5753C163.077 15.9552 163.909 16.5121 164.61 17.2141C165.311 17.9162 165.867 18.7497 166.246 19.6669C166.626 20.5842 166.821 21.5674 166.821 22.5602V104.92L190 142Z" fill="#3F3D56"/>
<path d="M29.4599 20C28.8078 20.0007 28.1825 20.2588 27.7213 20.7175C27.2601 21.1762 27.0007 21.7982 27 22.4469V96.5531C27.0008 97.2018 27.2602 97.8238 27.7213 98.2825C28.1825 98.7412 28.8078 98.9992 29.4599 99H160.54C161.192 98.9992 161.817 98.7412 162.279 98.2824C162.74 97.8237 162.999 97.2018 163 96.5531V22.4469C162.999 21.7982 162.74 21.1762 162.279 20.7175C161.817 20.2588 161.192 20.0008 160.54 20H29.4599Z" fill="white"/>
<path d="M29.8499 109C29.6483 109 29.4509 109.059 29.281 109.168C29.1112 109.278 28.976 109.434 28.8914 109.618L22.0966 124.493C22.0226 124.655 21.9903 124.833 22.0025 125.011C22.0148 125.189 22.0712 125.361 22.1667 125.511C22.2621 125.661 22.3935 125.784 22.5487 125.87C22.704 125.955 22.8781 126 23.055 126H165.945C166.125 126 166.302 125.954 166.459 125.865C166.616 125.777 166.748 125.65 166.843 125.496C166.937 125.342 166.991 125.166 166.999 124.985C167.007 124.804 166.969 124.624 166.889 124.462L159.503 109.587C159.416 109.41 159.281 109.262 159.114 109.158C158.948 109.054 158.755 108.999 158.559 109H29.8499Z" fill="#2F2E41"/>
<path d="M94.5 19C95.3284 19 96 18.3284 96 17.5C96 16.6716 95.3284 16 94.5 16C93.6716 16 93 16.6716 93 17.5C93 18.3284 93.6716 19 94.5 19Z" fill="white"/>
<path d="M80.7176 129C80.4892 129 80.2672 129.073 80.0859 129.207C79.9046 129.34 79.774 129.528 79.7143 129.74L78.0358 135.74C77.9943 135.888 77.9888 136.044 78.0197 136.194C78.0507 136.345 78.1173 136.486 78.2143 136.608C78.3113 136.73 78.4361 136.829 78.5791 136.897C78.7222 136.965 78.8795 137 79.039 137H110.961C111.127 137 111.29 136.962 111.437 136.889C111.584 136.816 111.711 136.71 111.807 136.58C111.904 136.45 111.966 136.3 111.989 136.142C112.013 135.984 111.997 135.823 111.943 135.673L109.785 129.673C109.714 129.476 109.581 129.306 109.405 129.185C109.229 129.065 109.019 129 108.803 129H80.7176Z" fill="#2F2E41"/>
<path d="M167 103V104H22L22.1091 103.875V103H167Z" fill="#2F2E41"/>
<path d="M83.1258 57.9981L93.0239 67.4267L107.048 46L112 50.2866L93.0239 76L79 59.7153L83.1258 57.9981Z" fill="white"/>
<path d="M68.8697 84H120.143C120.638 83.9973 121.125 83.8649 121.555 83.6155C121.985 83.3662 122.344 83.0085 122.597 82.5772C122.85 82.1459 122.989 81.6557 122.999 81.1542C123.01 80.6526 122.892 80.1569 122.657 79.7151L97.0332 31.5281C96.7876 31.0662 96.423 30.6802 95.9781 30.4111C95.5332 30.1421 95.0246 30 94.5063 30C93.988 30 93.4794 30.1421 93.0345 30.4111C92.5896 30.6802 92.225 31.0662 91.9794 31.5281L66.3428 79.7151C66.1075 80.1578 65.9896 80.6547 66.0007 81.1573C66.0118 81.6599 66.1514 82.151 66.406 82.5827C66.6605 83.0143 67.0213 83.3718 67.4531 83.6202C67.8849 83.8686 68.373 83.9995 68.8697 84ZM97.7686 75.1948H91.2439V68.594H97.7686V75.1948ZM97.7686 64.1914H91.2439V50.9868H97.7686V64.1914Z" fill="#FF9263"/>
<path d="M151.175 70C151.175 70 148.777 80 150.833 80C152.888 80 157 75.3333 157 75.3333V72.6667L151.175 70Z" fill="#A0616A"/>
<path d="M156 62L150 71H154.333L156 62Z" fill="#D0CDE1"/>
<path d="M160 138H152V145H160V138Z" fill="#A0616A"/>
<path d="M177 137.038L178.5 145L186 142.923L184.2 136L177 137.038Z" fill="#A0616A"/>
<path d="M152.897 72.828C152.897 72.828 150.367 74.07 150.051 79.6591C149.734 85.2481 151 99.8417 151 99.8417C151 99.8417 149.734 106.362 151 112.262C152.265 118.161 149.734 139.586 151.316 139.586C152.897 139.586 161.121 140.518 161.438 139.586C161.754 138.654 162.07 124.682 162.07 124.682C162.07 124.682 164.601 117.54 162.07 113.193C162.07 113.193 167.764 117.851 167.764 119.093C167.764 120.335 173.773 139.586 176.62 139.897C179.467 140.207 187.374 139.586 185.793 136.791C184.211 133.997 180.416 121.266 180.416 121.266C180.416 121.266 177.569 111.951 172.508 107.915L175.039 88.0426C175.039 88.0426 180.416 74.691 177.253 72.828C174.09 70.965 152.897 72.828 152.897 72.828Z" fill="#2F2E41"/>
<path d="M162.5 21C167.194 21 171 17.1944 171 12.5C171 7.80558 167.194 4 162.5 4C157.806 4 154 7.80558 154 12.5C154 17.1944 157.806 21 162.5 21Z" fill="#A0616A"/>
<path d="M158 18.2063C158 18.2063 161.333 28.6074 160.333 29.8681C159.333 31.1289 171 22.9341 171 22.9341C171 22.9341 166.667 20.0974 168.333 16L158 18.2063Z" fill="#A0616A"/>
<path d="M171.973 22C171.973 22 168.12 23.2705 166.194 25.4939C164.268 27.7173 159.774 28.0349 159.774 28.0349C159.774 28.0349 155.801 30.2487 154.317 34.0698C152.735 38.1422 153.654 43.8758 154.317 45.1868C155.601 47.7278 155.601 54.0803 155.601 54.0803L153.995 68.6911C153.995 68.6911 148.217 74.0908 152.711 74.726C157.206 75.3613 165.231 74.4084 170.046 74.726C174.862 75.0437 180.319 75.6789 178.714 72.5027C177.109 69.3264 175.183 67.103 177.109 60.7505C178.616 55.7794 178.551 37.1933 178.451 29.3446C178.437 28.2667 178.145 27.2102 177.602 26.2755C177.059 25.3409 176.284 24.5592 175.349 24.0048L171.973 22Z" fill="#D0CDE1"/>
<path d="M158.671 70C158.671 70 157.245 73.2783 157.103 75.2364C156.006 90.4545 164 75.2364 164 75.2364V72.6182L158.671 70Z" fill="#A0616A"/>
<path d="M181.381 142C181.381 142 176.699 138.333 176.699 140.333C176.699 142.333 171.392 150.333 171.392 150.333C171.392 150.333 162.652 157 169.831 157C177.011 157 180.132 155.667 180.132 155.667L187.624 150.333C187.624 150.333 189.497 148 188.873 145.333C188.248 142.667 186.063 139 186.063 139C186.063 139 183.566 142.667 181.381 142Z" fill="#2F2E41"/>
<path d="M153.926 143.935C153.926 143.935 153.278 140.912 151.007 142.423C148.736 143.935 142.573 148.47 142.573 148.47C142.573 148.47 131.219 150.888 138.356 153.911C145.492 156.935 161.712 152.702 161.712 152.702C161.712 152.702 162.36 143.028 161.712 143.33C161.063 143.633 154.251 144.539 153.926 143.935Z" fill="#2F2E41"/>
<path opacity="0.1" d="M167.029 32L168 51.3366L158.595 70L157 69.4053L166.706 51.9706L167.029 32Z" fill="black"/>
<path d="M174.257 26.4752L176.642 26C176.642 26 183.797 31.2277 181.571 41.6832C179.345 52.1386 169.488 67.9802 169.488 67.9802C169.488 67.9802 167.262 70.8317 166.626 71.4654C165.99 72.099 164.718 71.4653 165.354 72.4158C165.99 73.3663 164.4 74 164.4 74C164.4 74 157.405 74 158.041 71.4654C158.677 68.9307 169.488 50.8713 169.488 50.8713L167.898 34.0792C167.898 34.0792 166.626 25.8416 174.257 26.4752Z" fill="#D0CDE1"/>
<path opacity="0.1" d="M178 55.1251V53L167 70L178 55.1251Z" fill="black"/>
<path d="M156.654 5.04701L155.284 4.47827C155.284 4.47827 158.147 1.20801 162.13 1.49239L161.01 0.212704C161.01 0.212704 163.748 -0.924771 166.237 2.06112C167.546 3.63074 169.06 5.47573 170.004 7.5541H171.47L170.858 8.95226L173 10.3504L170.802 10.0993C171.01 11.3063 170.939 12.5475 170.594 13.7203L170.653 14.8254C170.653 14.8254 168.104 10.7344 168.104 10.1657V11.5875C168.104 11.5875 166.735 10.3079 166.735 9.45477L165.988 10.4501L165.615 8.88603L161.01 10.4501L161.757 9.17041L158.894 9.59696L160.014 8.03291C160.014 8.03291 156.778 9.88133 156.654 11.4454C156.529 13.0094 154.911 15 154.911 15L154.164 13.5781C154.164 13.5781 153.044 7.17978 156.654 5.04701Z" fill="#2F2E41"/>
</svg>
