<svg id="Laag_1" data-name="Laag 1" xmlns="http://www.w3.org/2000/svg" viewBox="0 0 1342 323.69"><defs><style>.cls-1{fill:#fff;}.cls-2{fill:#0000a4;}.cls-3{fill:#ffb996;}.cls-4{fill:#c26741;}.cls-5{fill:none;stroke:#000;stroke-miterlimit:10;stroke-width:6px;}</style></defs><title>bolnify_logo</title><path class="cls-1" d="M0,45.45H67.17q39.24,0,58.28,11.66t19,36.29q0,16.2-8.29,27.66a37.12,37.12,0,0,1-21.87,14.75v1.31q17.91,4.74,26,15.81t8,28.71q0,26.22-19.69,41.29T74.94,238H0Zm52,73.89H67.7q11.19,0,17.32-4.61T91.14,101q0-16.2-24.5-16.2H52Zm0,38.07v40.43H70.33q24.38,0,24.37-20.55,0-9.6-6.52-14.75t-18.9-5.13Z" transform="translate(0 -0.11)"/><path class="cls-1" d="M321.24,163.07q0,36.62-19.69,57.1t-55.12,20.48q-34,0-54.07-21t-20.09-56.63q0-36.48,19.69-56.7t55.26-20.22q22,0,38.85,9.35a63.83,63.83,0,0,1,26,26.81Q321.25,139.76,321.24,163.07Zm-96.68,0q0,19.23,5.14,29.31T247,202.45q12,0,16.93-10.07t4.94-29.31q0-19.09-5-28.84t-17.12-9.75q-11.85,0-17,9.68T224.56,163.07Z" transform="translate(0 -0.11)"/><path class="cls-1" d="M402.1,238H350.61V33.07H402.1Z" transform="translate(0 -0.11)"/><path class="cls-1" d="M532,238V156.62q0-14.88-4.28-22.46t-13.77-7.57q-13,0-18.83,10.4t-5.79,35.69V238H437.8V88.79h38.85l6.46,18.44h3a40.84,40.84,0,0,1,18.25-15.81q11.65-5.26,26.8-5.27,24.77,0,38.52,14.36t13.77,40.43V238Z" transform="translate(0 -0.11)"/><path class="cls-1" d="M617.45,51.64q0-11.58,6.45-17.25t20.81-5.66q14.35,0,20.94,5.79t6.59,17.12q0,22.67-27.53,22.66Q617.45,74.3,617.45,51.64ZM670.26,238h-51.5V88.79h51.5Z" transform="translate(0 -0.11)"/><path class="cls-1" d="M797.36,127.38H765.62V238h-51.5V127.38H694.37V102.09l20.8-12.64V86.94q0-29.49,12.06-42.41t38.65-12.9a113.6,113.6,0,0,1,19.43,1.58,153.94,153.94,0,0,1,21.27,5.53L795.52,72.06A69.13,69.13,0,0,0,777,69.43q-5.94,0-8.63,3.62t-2.7,11.79v4h31.74Z" transform="translate(0 -0.11)"/><path class="cls-1" d="M799.6,88.79h54.26l25.29,85.61a84.08,84.08,0,0,1,2.5,16.2h1.06a90,90,0,0,1,3.16-15.94l26-85.87h52.55l-59,158.7Q894,277.79,877.51,290.3t-43.14,12.51a103.12,103.12,0,0,1-21.07-2.24V260.14a72.68,72.68,0,0,0,15.93,1.58,26,26,0,0,0,12-2.63,27.39,27.39,0,0,0,9-7.45q3.81-4.8,8.16-15.74Z" transform="translate(0 -0.11)"/><path class="cls-2" d="M1180.16,323.29A161.27,161.27,0,0,1,1018.81,162c0-89,72.38-161.34,161.35-161.34S1341.5,73,1341.5,162a161.3,161.3,0,0,1-161.34,161.34Z" transform="translate(0 -0.11)"/><path class="cls-1" d="M1180.16,1.11a160.88,160.88,0,0,1,66.39,307.39A160.87,160.87,0,0,1,1066.42,48.21a159.82,159.82,0,0,1,113.74-47.1m0-1A161.85,161.85,0,1,0,1342,162,161.83,161.83,0,0,0,1180.16.11Z" transform="translate(0 -0.11)"/><path class="cls-3" d="M1300.08,265.88a161.93,161.93,0,0,1-226.36,13.6l7.64-122.12,68.28-68.27,141.61,53.1Z" transform="translate(0 -0.11)"/><path class="cls-4" d="M1081.13,157.36s56.09-28,70.12-56.09l140.23,42.07s-14-84.14-112.19-84.14C1179.29,59.2,1081.13,45.18,1081.13,157.36Z" transform="translate(0 -0.11)"/><rect x="1152.17" y="167.37" width="20.23" height="53.1" rx="10.12"/><rect x="1200.21" y="167.37" width="20.23" height="53.1" rx="10.12"/><path class="cls-5" d="M1137,271.16l7.07,4.24a82.44,82.44,0,0,0,86.42-1l5.14-3.25" transform="translate(0 -0.11)"/><path class="cls-1" d="M1180.16,10.11a151.85,151.85,0,0,1,112.67,253.64,151.85,151.85,0,1,1-220-209.17,150.85,150.85,0,0,1,107.38-44.47m0-10A161.85,161.85,0,1,0,1342,162,161.83,161.83,0,0,0,1180.16.11Z" transform="translate(0 -0.11)"/></svg>