<svg id="Laag_1" data-name="Laag 1" xmlns="http://www.w3.org/2000/svg" viewBox="0 0 323.69 323.69"><defs><style>.cls-1{fill:#0000a4;}.cls-2{fill:#fff;}.cls-3{fill:#ffb996;}.cls-4{fill:#c26741;}.cls-5{fill:none;stroke:#000;stroke-miterlimit:10;stroke-width:6px;}</style></defs><title>bolnify_logo_small</title><path class="cls-1" d="M162.16,323.29A161.27,161.27,0,0,1,.81,162C.81,73,73.19.61,162.16.61S323.5,73,323.5,162A161.3,161.3,0,0,1,162.16,323.29Z" transform="translate(-0.31 -0.11)"/><path class="cls-2" d="M162.16,1.11A160.88,160.88,0,0,1,228.55,308.5,160.87,160.87,0,0,1,48.42,48.21,159.82,159.82,0,0,1,162.16,1.11m0-1A161.85,161.85,0,1,0,324,162,161.83,161.83,0,0,0,162.16.11Z" transform="translate(-0.31 -0.11)"/><path class="cls-3" d="M282.08,265.88a161.93,161.93,0,0,1-226.36,13.6l7.64-122.12,68.28-68.27,141.61,53.1Z" transform="translate(-0.31 -0.11)"/><path class="cls-4" d="M63.13,157.36s56.09-28,70.12-56.09l140.23,42.07s-14-84.14-112.19-84.14C161.29,59.2,63.13,45.18,63.13,157.36Z" transform="translate(-0.31 -0.11)"/><rect x="133.85" y="167.37" width="20.23" height="53.1" rx="10.12"/><rect x="181.9" y="167.37" width="20.23" height="53.1" rx="10.12"/><path class="cls-5" d="M119,271.16l7.07,4.24a82.44,82.44,0,0,0,86.42-1l5.14-3.25" transform="translate(-0.31 -0.11)"/><path class="cls-2" d="M162.16,10.11A151.85,151.85,0,0,1,274.83,263.75a151.85,151.85,0,1,1-220-209.17A150.85,150.85,0,0,1,162.16,10.11m0-10A161.85,161.85,0,1,0,324,162,161.83,161.83,0,0,0,162.16.11Z" transform="translate(-0.31 -0.11)"/></svg>